<svg width="367" height="149" viewBox="0 0 367 149" fill="none" xmlns="http://www.w3.org/2000/svg">
<path d="M27.944 91.072L23.336 102.784C22.696 104.576 22.12 106.432 21.608 108.352C21.096 110.272 20.552 111.936 19.976 113.344C19.4 114.816 18.504 115.968 17.288 116.8C16.136 117.632 14.824 118.24 13.352 118.624C11.88 119.072 10.344 119.264 8.744 119.2C7.208 119.136 5.832 118.848 4.616 118.336C1.864 117.056 0.904 114.944 1.736 112C4.68 99.072 7.432 88.704 9.992 80.896C12.616 73.088 14.76 66.944 16.424 62.464C18.152 57.984 19.944 53.248 21.8 48.256C21.992 46.4 22.76 44.736 24.104 43.264C25.448 41.792 27.016 40.576 28.808 39.616C30.664 38.656 32.584 37.984 34.568 37.6C36.552 37.152 38.312 37.088 39.848 37.408C41.384 37.728 42.504 38.432 43.208 39.52C43.976 40.608 44.04 42.176 43.4 44.224C41.096 50.112 39.464 54.272 38.504 56.704C37.544 59.136 36.68 61.312 35.912 63.232L33.224 69.568C34.568 69.632 36.264 69.44 38.312 68.992C42.024 68.16 44.712 67.872 46.376 68.128C46.376 67.808 46.536 67.264 46.856 66.496C48.648 58.688 50.664 51.52 52.904 44.992C54.504 39.616 58.632 36.8 65.288 36.544C67.912 36.544 69.896 37.184 71.24 38.464C72.712 39.808 72.904 41.632 71.816 43.936C65.928 60.448 61.768 73.472 59.336 83.008C56.584 94.016 54.76 101.44 53.864 105.28C53.032 109.12 52.296 111.392 51.656 112.096C51.016 112.8 50.344 113.28 49.64 113.536C49 113.856 48.36 114.144 47.72 114.4C47.08 114.656 46.568 115.296 46.184 116.32H45.896C45.384 117.472 44.264 118.368 42.536 119.008C40.808 119.648 39.048 119.872 37.256 119.68C35.528 119.552 34.056 118.912 32.84 117.76C31.688 116.672 31.4 114.976 31.976 112.672C32.616 109.024 33.672 105.12 35.144 100.96C36.616 96.736 37.768 93.44 38.6 91.072C39.496 88.704 40.232 86.496 40.808 84.448C40.296 84.704 39.784 84.896 39.272 85.024C38.824 85.152 38.248 85.408 37.544 85.792C36.84 86.112 36.104 86.4 35.336 86.656C34.632 86.912 33.928 87.168 33.224 87.424C31.432 88.128 29.96 88.832 28.808 89.536L27.944 91.072ZM38.792 84.64C38.856 84.64 39.176 84.544 39.752 84.352C39.368 84.48 39.048 84.576 38.792 84.64ZM94.3655 42.496V42.688C94.3655 42.752 94.3655 42.784 94.3655 42.784C94.4295 42.784 94.4615 42.816 94.4615 42.88V43.072H94.5575L95.1335 44.608C95.7735 46.464 94.1095 52.224 90.1415 61.888C85.9175 72.192 83.9655 80.224 84.2855 85.984C84.9895 90.08 88.4135 86.784 94.5575 76.096C99.4215 67.776 104.126 58.656 108.67 48.736C109.246 47.392 109.854 46.016 110.494 44.608C111.134 43.136 111.934 41.92 112.894 40.96C115.006 38.656 117.566 38.048 120.574 39.136C121.598 37.92 122.782 37.088 124.126 36.64C125.534 36.192 126.846 36.096 128.062 36.352C129.342 36.608 130.43 37.216 131.326 38.176C132.222 39.072 132.702 40.288 132.766 41.824C132.958 43.104 132.286 46.144 130.75 50.944C129.278 55.744 127.902 60.128 126.622 64.096C125.342 68.064 124.03 72.384 122.686 77.056C119.422 88.128 116.83 98.56 114.91 108.352C114.846 110.4 113.95 112.096 112.222 113.44C110.558 114.784 108.67 115.648 106.558 116.032C104.51 116.48 102.558 116.416 100.702 115.84C98.4615 115.2 97.2775 113.6 97.1495 111.04C97.1495 110.336 97.1175 109.632 97.0535 108.928C97.1815 111.104 95.6135 112.96 92.3495 114.496C91.4535 114.944 90.6215 115.36 89.8535 115.744C85.3735 117.088 80.6695 116.8 75.7415 114.88C73.4375 113.92 71.3575 112.64 69.5015 111.04C67.7095 109.376 66.4615 107.424 65.7575 105.184C63.5175 98.016 63.9335 88.608 67.0055 76.96C68.2855 71.968 69.8535 67.104 71.7095 62.368C73.5655 57.632 74.9095 54.208 75.7415 52.096C76.6375 49.984 77.2775 48.544 77.6615 47.776C78.0455 46.944 78.4615 46.144 78.9095 45.376C79.9975 43.2 80.9255 41.728 81.6935 40.96L82.8455 39.904C82.9735 39.776 83.1015 39.712 83.2295 39.712C83.3575 39.648 83.5175 39.552 83.7095 39.424C84.2215 39.104 84.7655 38.88 85.3415 38.752L86.6855 38.464H87.2615C89.1175 38.208 90.7175 38.592 92.0615 39.616C92.0615 39.68 92.1255 39.712 92.2535 39.712L93.0215 40.384L93.3095 40.672L93.5975 41.056C93.5975 41.12 93.5975 41.152 93.5975 41.152C93.6615 41.152 93.6935 41.184 93.6935 41.248L93.7895 41.344V41.536C93.8535 41.536 93.8855 41.568 93.8855 41.632V41.728C93.9495 41.792 94.0135 41.824 94.0775 41.824V41.92C94.0775 41.984 94.0775 42.016 94.0775 42.016C94.1415 42.016 94.1735 42.048 94.1735 42.112C94.1735 42.112 94.2055 42.144 94.2695 42.208V42.304C94.2695 42.368 94.3015 42.432 94.3655 42.496ZM96.9575 106.432V106.144C96.8935 106.208 96.8615 106.464 96.8615 106.912C96.8615 106.72 96.8935 106.592 96.9575 106.528V106.432ZM164.884 41.92C165.524 43.648 165.876 44.8 165.94 45.376C166.068 46.592 165.62 47.616 164.596 48.448C164.596 48.512 164.532 48.608 164.404 48.736C164.98 51.744 165.108 54.56 164.788 57.184C164.468 59.808 164.052 62.336 163.54 64.768C166.996 58.88 169.748 54.56 171.796 51.808C176.02 46.112 179.956 42.048 183.604 39.616C184.82 38.912 186.292 38.4 188.02 38.08C189.812 37.696 191.508 37.632 193.108 37.888C194.708 38.144 196.02 38.784 197.044 39.808C198.132 40.832 198.612 42.368 198.484 44.416C196.692 56.896 194.772 68.544 192.724 79.36C190.676 90.112 188.02 100.384 184.756 110.176V110.368H184.66C183.892 112.672 181.972 114.304 178.9 115.264C175.892 116.16 173.204 116.224 170.836 115.456C167.956 114.624 166.644 113.088 166.9 110.848L166.996 108.64V108.448C167.252 106.912 167.38 105.888 167.38 105.376C167.444 104.8 167.508 104.384 167.572 104.128C167.7 102.464 167.956 100.928 168.34 99.52C168.788 98.048 169.108 96.864 169.3 95.968C169.492 95.072 169.684 94.24 169.876 93.472C170.068 92.64 170.196 92 170.26 91.552C167.828 94.88 166.1 96.896 165.076 97.6C162.516 99.392 159.54 100.224 156.148 100.096C154.036 99.968 152.82 99.488 152.5 98.656C151.86 96.864 151.412 95.808 151.156 95.488C150.772 94.976 150.452 94.112 150.196 92.896C148.532 100.256 146.9 105.472 145.3 108.544C144.66 109.76 144.02 110.848 143.38 111.808C142.484 113.92 140.436 115.392 137.236 116.224C134.228 117.056 131.348 116.992 128.596 116.032C125.78 115.136 124.436 113.536 124.564 111.232C124.692 108.928 125.172 106.048 126.004 102.592C126.772 99.072 127.7 95.36 128.788 91.456C132.052 79.104 134.356 71.072 135.7 67.36C137.108 63.648 138.292 60.736 139.252 58.624C141.556 53.696 143.604 50.112 145.396 47.872C147.38 43.84 150.676 41.408 155.284 40.576C158.932 39.872 162.132 40.32 164.884 41.92ZM246.619 46.912C248.795 48.064 250.171 49.76 250.747 52C249.467 59.168 248.315 66.304 247.291 73.408C246.267 80.448 245.275 86.368 244.315 91.168C243.355 95.904 242.683 99.456 242.299 101.824C241.979 104.192 241.595 106.56 241.147 108.928L240.571 110.944C240.443 111.648 240.315 112.288 240.187 112.864C240.059 113.504 239.931 114.176 239.803 114.88C238.011 116.928 235.579 117.952 232.507 117.952C229.243 117.952 226.651 117.12 224.731 115.456C223.579 114.56 223.387 112.672 224.155 109.792C224.475 108.64 224.667 107.168 224.731 105.376C224.859 103.52 224.987 101.984 225.115 100.768V100.576C223.195 101.28 221.467 102.208 219.931 103.36C218.395 104.448 217.435 105.152 217.051 105.472C216.667 105.728 216.155 105.952 215.515 106.144C214.875 106.272 214.299 106.368 213.787 106.432C212.571 106.496 211.739 106.688 211.291 107.008C207.579 113.664 204.251 117.376 201.307 118.144C199.451 118.72 197.595 118.848 195.739 118.528C193.883 118.272 192.411 117.184 191.323 115.264C189.275 113.344 189.787 108.096 192.859 99.52C194.523 94.976 196.891 89.536 199.963 83.2C203.099 76.8 206.107 71.232 208.987 66.496C215.195 56.32 222.011 47.744 229.435 40.768C230.651 40.256 231.963 39.68 233.371 39.04C234.779 38.336 236.155 37.952 237.499 37.888C238.907 37.824 240.347 37.984 241.819 38.368C243.291 38.752 244.539 39.328 245.563 40.096C247.931 41.888 248.283 44.16 246.619 46.912ZM226.075 72.16C224.731 76 223.387 79.552 222.043 82.816C220.699 86.016 219.547 88.832 218.587 91.264L226.171 90.976C226.683 86.88 227.259 82.816 227.899 78.784C228.539 74.752 229.147 70.72 229.723 66.688L226.075 72.16ZM223.483 91.36C224.379 91.36 225.275 91.296 226.171 91.168V91.072C225.339 91.136 224.571 91.2 223.867 91.264C223.163 91.328 223.035 91.36 223.483 91.36ZM254.247 74.752C255.527 70.464 256.551 67.168 257.319 64.864C258.151 62.496 258.951 60.384 259.719 58.528C260.487 56.672 261.351 54.88 262.311 53.152C263.335 51.424 264.423 49.856 265.575 48.448C266.791 46.976 268.071 45.824 269.415 44.992C270.759 44.16 272.167 43.744 273.639 43.744C275.111 43.744 276.647 44.32 278.247 45.472C280.807 51.872 282.375 56.16 282.951 58.336C283.719 61.536 284.423 66.048 285.063 71.872C285.639 70.4 286.279 68.864 286.983 67.264C287.751 65.6 288.487 63.936 289.191 62.272C291.175 58.048 292.423 54.848 292.935 52.672C294.343 48.192 297.255 44.832 301.671 42.592C305.511 40.672 309.095 40.064 312.423 40.768C313.767 41.024 314.695 41.568 315.207 42.4C315.783 43.232 315.783 44.096 315.207 44.992C314.695 45.888 314.503 46.752 314.631 47.584C314.823 48.352 314.983 49.28 315.111 50.368C315.303 53.312 314.791 55.936 313.575 58.24C312.359 60.48 311.111 63.296 309.831 66.688C308.551 70.016 307.239 73.568 305.895 77.344C304.615 81.12 303.303 84.96 301.959 88.864C300.615 92.768 299.303 96.32 298.023 99.52C295.207 106.88 292.903 110.944 291.111 111.712C288.679 113.184 286.887 114.048 285.735 114.304C284.263 114.56 282.183 114.56 279.495 114.304C277.831 114.176 276.391 112.032 275.175 107.872C274.471 105.632 273.831 102.528 273.255 98.56C272.231 91.648 271.527 87.84 271.143 87.136C268.583 95.456 266.759 100.704 265.671 102.88C264.647 105.056 263.847 106.496 263.271 107.2C262.759 107.904 262.119 108.832 261.351 109.984C260.519 112.288 258.535 113.984 255.399 115.072C252.711 116.096 250.279 116.256 248.103 115.552C245.735 114.784 245.031 113.312 245.991 111.136C246.695 103.456 249.447 91.328 254.247 74.752ZM329.884 99.904C333.596 100.288 336.348 100.48 338.14 100.48C339.996 100.48 342.78 100.224 346.492 99.712C347.644 100.096 348.316 100.576 348.508 101.152C348.7 101.728 348.764 102.336 348.7 102.976C348.636 103.552 348.668 104.128 348.796 104.704C348.924 105.28 349.532 105.76 350.62 106.144C351.196 106.336 351.356 106.912 351.1 107.872C350.908 108.768 350.396 109.76 349.564 110.848C347.452 113.6 344.956 115.52 342.076 116.608C337.468 117.76 333.852 118.432 331.228 118.624C326.876 118.944 322.14 118.784 317.02 118.144C311.388 117.12 308.668 114.784 308.86 111.136C308.86 97.696 311.804 84.192 317.692 70.624C319.612 66.208 321.788 61.568 324.22 56.704C324.732 55.68 325.02 54.528 325.084 53.248C325.212 51.968 325.308 50.72 325.372 49.504C325.436 48.288 325.628 47.2 325.948 46.24C326.268 45.28 326.94 44.608 327.964 44.224C341.276 38.912 351.804 36.864 359.548 38.08C362.236 38.144 363.996 39.072 364.828 40.864C365.724 42.592 365.82 44.544 365.116 46.72C364.476 48.896 363.164 50.944 361.18 52.864C359.26 54.784 356.828 55.968 353.884 56.416C350.108 57.504 347.804 58.24 346.972 58.624C345.372 59.392 344.22 60.416 343.516 61.696C342.62 63.104 341.788 64.448 341.02 65.728C340.252 67.008 339.708 68.384 339.388 69.856L339.004 71.968C340.22 72.544 341.692 72.736 343.42 72.544C345.212 72.288 346.844 72.064 348.316 71.872C349.852 71.616 351.068 71.584 351.964 71.776C352.924 71.968 353.116 72.928 352.54 74.656C352.028 76.32 351.036 78.208 349.564 80.32C348.156 82.432 346.14 83.968 343.516 84.928C341.852 85.248 340.7 85.504 340.06 85.696C339.484 85.824 339.036 85.92 338.716 85.984C338.268 86.048 336.988 86.144 334.876 86.272C331.868 91.392 330.044 95.36 329.404 98.176C329.148 99.328 329.308 99.904 329.884 99.904Z" fill="#ABF600"/>
</svg>
