<svg width="365" height="140" viewBox="0 0 365 140" fill="none" xmlns="http://www.w3.org/2000/svg">
<path d="M2.40625 104.812C2.21875 104.875 2.09375 104.812 2.03125 104.625C1.96875 104.438 1.9375 104.25 1.9375 104.062C2 103.875 2.09375 103.719 2.21875 103.594C2.40625 103.469 2.625 103.469 2.875 103.594C2.0625 102.594 1.53125 101.688 1.28125 100.875C1.09375 100.062 0.6875 99.0625 0.0625 97.875C0.25 97.6875 0.375 97.4375 0.4375 97.125C0.5 96.75 0.59375 96.4062 0.71875 96.0938C0.78125 95.7812 0.875 95.5625 1 95.4375C1.1875 95.25 1.40625 95.2812 1.65625 95.5312C1.53125 94.8438 1.53125 94.2812 1.65625 93.8438C1.78125 93.4062 1.90625 93 2.03125 92.625C2.21875 92.25 2.34375 91.875 2.40625 91.5C2.46875 91.125 2.375 90.6875 2.125 90.1875C3.3125 88.5625 4.09375 86.8125 4.46875 84.9375C4.84375 83 5.0625 81.25 5.125 79.6875C5.6875 79.125 6.15625 78.375 6.53125 77.4375C6.96875 76.5 7.28125 75.5312 7.46875 74.5312C7.65625 73.5312 7.75 72.5625 7.75 71.625C7.75 70.625 7.625 69.8438 7.375 69.2812C7.4375 69.0312 7.5625 68.9062 7.75 68.9062C8 68.8438 8.28125 68.8438 8.59375 68.9062C9.03125 66.4062 9.3125 63.625 9.4375 60.5625C9.625 57.5 9.9375 54.5625 10.375 51.75C10.875 48.875 11.6562 46.375 12.7188 44.25C13.7812 42.0625 15.4688 40.6562 17.7812 40.0312C18.2188 41.5938 18.7812 42.9688 19.4688 44.1562C20.2188 45.3438 21 46.5 21.8125 47.625C22.6875 48.75 23.5625 49.875 24.4375 51C25.3125 52.125 26.125 53.375 26.875 54.75C26.8125 56.1875 26.6562 57.8438 26.4062 59.7188C26.2188 61.5938 25.9375 63.5 25.5625 65.4375C25.25 67.375 24.9062 69.25 24.5312 71.0625C24.2188 72.875 23.9062 74.4062 23.5938 75.6562C23.6562 75.9688 23.875 76.1875 24.25 76.3125C24.625 76.375 24.6875 76.7188 24.4375 77.3438C26.25 76.9062 28.125 76.5 30.0625 76.125C32.0625 75.6875 34 75.2812 35.875 74.9062C37.8125 74.4688 39.6875 73.9688 41.5 73.4062C43.375 72.8438 45.125 72.1562 46.75 71.3438C47.125 68.3438 47.5938 65.375 48.1562 62.4375C48.7188 59.5 48.7812 56.5312 48.3438 53.5312C48.7188 53.2188 49.0312 52.8438 49.2812 52.4062C49.5312 51.9688 49.9062 51.6875 50.4062 51.5625C50.0312 50.125 49.875 48.625 49.9375 47.0625C50 45.4375 50.25 43.9375 50.6875 42.5625C51.1875 41.1875 51.9062 40 52.8438 39C53.7812 37.9375 54.9375 37.25 56.3125 36.9375C57.125 38.125 57.8438 39.4062 58.4688 40.7812C59.0938 42.1562 59.7188 43.5625 60.3438 45C60.9688 46.375 61.625 47.6875 62.3125 48.9375C63.0625 50.1875 64 51.25 65.125 52.125C65.3125 54.3125 65.4688 56.5625 65.5938 58.875C65.7188 61.125 65.8125 63.4688 65.875 65.9062C65.3125 68.7188 64.6562 71.4688 63.9062 74.1562C63.2188 76.7812 62.7188 79.5938 62.4062 82.5938C61.9062 83.1562 61.5 83.8438 61.1875 84.6562C60.875 85.4062 60.5625 86.1875 60.25 87C60 87.75 59.6875 88.5 59.3125 89.25C58.9375 90 58.4688 90.625 57.9062 91.125C58.1562 92 58.1875 92.8438 58 93.6562C57.875 94.4062 58.0938 95.3125 58.6562 96.375C58.7812 98.3125 58.5312 99.9375 57.9062 101.25C57.3438 102.5 56.5312 103.594 55.4688 104.531C54.4688 105.406 53.2812 106.125 51.9062 106.688C50.5938 107.188 49.2812 107.656 47.9688 108.094C47.3438 107.719 46.75 107.344 46.1875 106.969C45.6875 106.531 45.0625 106.219 44.3125 106.031L44.7812 105.188C43.5312 103.938 42.4375 102.625 41.5 101.25C40.625 99.8125 40.2188 98.1875 40.2812 96.375C40.2812 96.3125 40.3438 95.9062 40.4688 95.1562C40.5938 94.3438 40.7188 93.5 40.8438 92.625C41.0312 91.75 41.1875 90.9375 41.3125 90.1875C41.5 89.375 41.5938 88.9375 41.5938 88.875C39.8438 89.0625 38.0312 89.4688 36.1562 90.0938C34.2812 90.7188 32.4375 91.4375 30.625 92.25C28.875 93 27.2188 93.8125 25.6562 94.6875C24.1562 95.5 22.9375 96.1875 22 96.75C22 96.9375 21.8438 97.4688 21.5312 98.3438C21.2188 99.2188 20.8438 100.156 20.4062 101.156C19.9688 102.094 19.4688 102.938 18.9062 103.688C18.4062 104.438 17.875 104.781 17.3125 104.719C17.4375 105.031 17.5625 105.281 17.6875 105.469C17.8125 105.594 17.8125 105.875 17.6875 106.312C16.625 106.625 15.6562 107.031 14.7812 107.531C13.9688 108.031 13.125 108.438 12.25 108.75C11.375 109.125 10.4062 109.281 9.34375 109.219C8.34375 109.219 7.125 108.844 5.6875 108.094C5.6875 107.656 5.5 107.281 5.125 106.969C4.75 106.594 4.34375 106.281 3.90625 106.031C3.53125 105.781 3.1875 105.562 2.875 105.375C2.5625 105.188 2.40625 105 2.40625 104.812ZM123.062 54.6562C123.188 56.0312 123.406 57.2188 123.719 58.2188C124.031 59.2188 124.375 60.1875 124.75 61.125C125.062 62 125.344 62.875 125.594 63.75C125.906 64.5625 126.125 65.5625 126.25 66.75C125.75 68.375 125.375 69.875 125.125 71.25C124.938 72.625 124.719 74.0625 124.469 75.5625C123.469 77.75 122.5 79.6875 121.562 81.375C120.625 83.0625 119.875 84.5312 119.312 85.7812C119 86.0938 118.719 86.4688 118.469 86.9062C118.281 87.2812 118.062 87.6875 117.812 88.125C117.688 88.3125 117.531 88.5938 117.344 88.9688C117.156 89.3438 117 89.5938 116.875 89.7188L115 89.0625L114.625 91.4062L113.312 91.7812L112.375 92.9062C111.188 94.9688 109.938 96.7188 108.625 98.1562C107.312 99.5312 105.812 100.781 104.125 101.906C102.5 102.969 100.625 103.969 98.5 104.906C96.4375 105.844 94.0938 106.875 91.4688 108C90.4062 107.875 89.4688 107.812 88.6562 107.812C87.9062 107.75 87.1875 107.688 86.5 107.625C85.3125 107.625 83.8438 107.531 82.0938 107.344C81.9062 106.844 81.625 106.5 81.25 106.312C80.875 106.125 80.5312 106.031 80.2188 106.031C79.1562 105.531 78.3438 104.812 77.7812 103.875C77.2812 102.875 76.7812 101.812 76.2812 100.688C75.9688 100 75.6562 99.375 75.3438 98.8125C75.0312 98.1875 74.6875 97.5625 74.3125 96.9375L75.9062 96.4688L73.8438 94.2188C73.7188 94.0312 73.5625 93.875 73.375 93.75C73.1875 93.5625 73.0312 93.375 72.9062 93.1875L72.8125 91.6875C72.625 87.375 72.5312 83.4375 72.5312 79.875C72.5938 76.25 73.0938 73.0312 74.0312 70.2188V69.1875C74.2188 67.8125 74.4062 66.6875 74.5938 65.8125C74.7812 64.875 74.9375 64 75.0625 63.1875C75.25 61.8125 75.5312 60.5312 75.9062 59.3438C76.7812 59.1562 77.4375 58.8125 77.875 58.3125C78.3125 57.75 78.6875 57.25 79 56.8125C79.875 56.75 80.4688 56.875 80.7812 57.1875C81.0938 57.5 81.4062 58 81.7188 58.6875C82.0312 59.25 82.4062 59.875 82.8438 60.5625C83.3438 61.25 84.0625 61.7812 85 62.1562C85.125 62.6562 85.2812 63.1875 85.4688 63.75C85.7188 64.25 85.9688 64.8125 86.2188 65.4375C86.7188 66.5 87.1562 67.625 87.5312 68.8125C87.9688 69.9375 88.2188 71.0312 88.2812 72.0938C87.6562 73.2812 87.1562 74.6562 86.7812 76.2188C86.4688 77.7812 86.25 79.375 86.125 81C86.0625 82.5625 86.0938 84.0938 86.2188 85.5938C86.4062 87.0312 86.6875 88.25 87.0625 89.25L87.625 90.4688L89.2188 90.2812C91.0938 89.7812 92.7812 89.25 94.2812 88.6875C95.8438 88.0625 97.2812 87.3438 98.5938 86.5312C99.9062 85.7188 101.156 84.7812 102.344 83.7188C103.531 82.5938 104.781 81.3125 106.094 79.875C107.406 78.4375 108.531 76.8125 109.469 75C110.469 73.125 111.281 71.1875 111.906 69.1875C112.594 67.1875 113.094 65.2188 113.406 63.2812C113.781 61.2812 114.031 59.4062 114.156 57.6562C115.219 57.2812 115.75 56.5312 115.75 55.4062L115.562 54.375C115.312 54 115.312 53.5625 115.562 53.0625C115.938 51.875 116.812 50.9688 118.188 50.3438C119.188 50.9688 120.062 51.6562 120.812 52.4062C121.625 53.1562 122.375 53.9062 123.062 54.6562ZM188.781 106.312C188.156 106.625 187.562 106.906 187 107.156C186.5 107.406 185.906 107.531 185.219 107.531C182.781 105.719 181.5 102.562 181.375 98.0625C181.312 93.5625 182.281 87.8438 184.281 80.9062C184.594 80.7188 184.75 80.3438 184.75 79.7812L183.906 78.8438C183.656 78.8438 183.406 78.875 183.156 78.9375C182.969 79 182.812 79.2188 182.688 79.5938C181.062 80.7812 179.281 82.0312 177.344 83.3438C175.406 84.5938 173.375 85.7812 171.25 86.9062C169.188 87.9688 167.062 88.8438 164.875 89.5312C162.75 90.2188 160.656 90.5625 158.594 90.5625C153.344 90.5625 149.406 87.9062 146.781 82.5938L146.031 81.1875L145.281 82.4062C145.094 82.6562 144.812 83.1875 144.438 84C144.062 84.75 143.688 85.625 143.312 86.625C142.938 87.625 142.594 88.6562 142.281 89.7188C142.031 90.7188 141.938 91.5938 142 92.3438C141.438 92.9062 140.844 93.5625 140.219 94.3125C139.594 95.0625 139.125 95.9062 138.812 96.8438C138.688 97.3438 138.75 97.8125 139 98.25C138.875 98.8125 138.594 99.25 138.156 99.5625C137.906 99.875 137.625 100.188 137.312 100.5C137.062 100.75 136.844 101.031 136.656 101.344C136.531 101.656 136.438 101.969 136.375 102.281C136.375 102.594 136.344 102.906 136.281 103.219C136.281 103.656 136.219 104.062 136.094 104.438C135.031 106.625 134.188 108.031 133.562 108.656C132.938 109.344 132.094 109.688 131.031 109.688C130.531 109.688 129.719 109.594 128.594 109.406C127.781 108.531 127.031 107.344 126.344 105.844C125.719 104.281 125.219 102.625 124.844 100.875C124.531 99.125 124.375 97.375 124.375 95.625C124.438 93.8125 124.75 92.25 125.312 90.9375C125.312 90.875 125.562 90.25 126.062 89.0625C126.562 87.875 127.188 86.3438 127.938 84.4688C128.75 82.5938 129.656 80.5312 130.656 78.2812C131.656 75.9688 132.656 73.75 133.656 71.625C134.656 69.4375 135.594 67.4375 136.469 65.625C137.406 63.8125 138.188 62.4375 138.812 61.5C139.312 60.75 139.75 60.0625 140.125 59.4375C140.562 58.75 140.969 58.0938 141.344 57.4688C142.469 55.5312 143.531 53.9375 144.531 52.6875C145.594 51.375 147.125 50.3438 149.125 49.5938C150.5 50.1562 151.5 50.8125 152.125 51.5625L152.312 52.5938C152.562 53.2188 152.938 53.5312 153.438 53.5312C154.125 53.7188 154.688 53.9062 155.125 54.0938C155.625 54.2188 156.156 54.3438 156.719 54.4688C157.156 54.9688 157.562 55.5625 157.938 56.25C158.438 57 158.906 57.75 159.344 58.5C159.844 59.1875 160.219 59.9062 160.469 60.6562C160.781 61.3438 160.938 62.0625 160.938 62.8125C161 63.5625 160.875 64.3438 160.562 65.1562L160.656 66.0938C160.969 66.6562 161.031 67.4375 160.844 68.4375C160.781 68.875 160.75 69.3438 160.75 69.8438C160.75 70.2812 160.812 70.7812 160.938 71.3438C162.062 72.2188 163.062 72.6562 163.938 72.6562C164.938 72.6562 165.844 72.4375 166.656 72C167.531 71.5 168.344 71 169.094 70.5C169.594 70.125 170.094 69.8125 170.594 69.5625C171.094 69.25 171.594 69.0625 172.094 69C173.219 67.9375 174.219 67 175.094 66.1875C176.031 65.375 177 64.5625 178 63.75C179.875 62.25 181.688 60.625 183.438 58.875C185.188 57.125 186.594 54.9375 187.656 52.3125C188.281 51.9375 188.938 51.75 189.625 51.75C190.312 51.75 191.031 51.9062 191.781 52.2188C192.531 52.5312 193.25 52.8438 193.938 53.1562C194.125 53.2812 194.281 53.375 194.406 53.4375C194.594 53.5 194.75 53.5625 194.875 53.625C194.875 54.25 195.125 54.7812 195.625 55.2188C195.875 55.4062 196.031 55.5312 196.094 55.5938C196.156 55.6562 196.25 55.7188 196.375 55.7812C197.312 56.2812 197.906 56.7812 198.156 57.2812C198.594 58.7188 199.375 59.8125 200.5 60.5625C200.375 61.1875 200.375 61.7812 200.5 62.3438C200.688 62.8438 200.906 63.375 201.156 63.9375C201.219 64.125 201.281 64.3125 201.344 64.5C201.406 64.6875 201.5 64.9062 201.625 65.1562L199.844 64.9688L200.125 66.75C200.25 67.625 200.156 68.5938 199.844 69.6562C199.594 70.7188 199.281 71.5625 198.906 72.1875C198.969 73.8125 199 75.0938 199 76.0312C199.062 76.9062 199.031 77.75 198.906 78.5625C198.781 79.3125 198.594 80.0312 198.344 80.7188C198.156 81.4062 197.875 82.1562 197.5 82.9688C197.75 86.9688 197.281 90.625 196.094 93.9375C194.969 97.1875 193.781 100.25 192.531 103.125C192.406 103.438 192.25 103.75 192.062 104.062C191.938 104.375 191.812 104.688 191.688 105C191.125 105.188 190.625 105.406 190.188 105.656C189.75 105.844 189.281 106.062 188.781 106.312ZM251.688 100.125C251.312 101.188 250.75 102.281 250 103.406C249.312 104.469 248.469 105.438 247.469 106.312C246.531 107.125 245.469 107.812 244.281 108.375C243.094 108.938 241.844 109.25 240.531 109.312C239.719 109.125 239.156 108.906 238.844 108.656C238.594 108.469 238.312 108.281 238 108.094C237.812 107.969 237.625 107.875 237.438 107.812C237.312 107.688 237.188 107.594 237.062 107.531L235.938 107.062L236.312 105.844C236.438 105.344 236.406 104.969 236.219 104.719C236.031 104.406 235.656 104 235.094 103.5C234.906 103.312 234.719 103.125 234.531 102.938C234.344 102.75 234.188 102.562 234.062 102.375L232.469 100.594L235 99.9375C236.562 99.5 237.594 98.9375 238.094 98.25C238.656 97.5625 238.875 96.4062 238.75 94.7812C237.5 94.5312 236.438 94.5 235.562 94.6875C234.75 94.875 233.906 95.0938 233.031 95.3438C231.906 95.6562 230.75 95.9375 229.562 96.1875C228.438 96.375 227.188 96.4688 225.812 96.4688C225.312 96.4688 224.844 96.4688 224.406 96.4688C223.969 96.4062 223.5 96.3438 223 96.2812L222.062 96.0938C221.938 95.4062 221.812 95.0312 221.688 94.9688C221.562 94.8438 221.438 94.7188 221.312 94.5938C221 94.2812 220.656 93.875 220.281 93.375C219.969 92.8125 219.906 92.125 220.094 91.3125C219.781 90.75 219.594 90.1875 219.531 89.625C219.156 90.375 218.875 91.1562 218.688 91.9688L218.312 92.9062L217.375 93.0938C217.25 93.1562 217.156 93.3125 217.094 93.5625C217.031 93.75 217 93.9062 217 94.0312L216.531 95.625C216.406 95.75 216.281 95.875 216.156 96C216.031 96.0625 215.906 96.1562 215.781 96.2812C215.656 96.8438 215.5 97.4062 215.312 97.9688C215.125 98.5312 214.938 99.0625 214.75 99.5625C214.438 100.375 214.156 101.188 213.906 102C213.719 102.75 213.656 103.5 213.719 104.25L213.344 105.281C213.031 105.656 212.688 105.969 212.312 106.219C211.938 106.406 211.562 106.594 211.188 106.781C211.062 106.906 210.875 107.031 210.625 107.156C210.438 107.219 210.281 107.281 210.156 107.344L209.875 108.375L208.75 108.562C208.062 108.688 207.562 108.781 207.25 108.844C207 108.906 206.688 108.938 206.312 108.938L205.375 108.844C204.688 108.281 204.156 107.844 203.781 107.531C203.406 107.156 202.969 106.812 202.469 106.5C201.906 105.75 201.594 105.188 201.531 104.812C201.469 104.438 201.406 104.094 201.344 103.781C201.219 103.406 201.156 103.094 201.156 102.844C201.094 102.594 201 102.406 200.875 102.281L199.656 101.156L200.688 100.312L200.781 98.7188C202.031 95.5312 203.344 92.4688 204.719 89.5312C206.156 86.5938 207.625 83.5938 209.125 80.5312C209.625 79.5312 210.094 78.5312 210.531 77.5312C211.031 76.5312 211.531 75.5312 212.031 74.5312C211.969 74.3438 211.938 74.125 211.938 73.875C211.938 73.625 212 73.3438 212.125 73.0312C212.812 71.9688 213.375 71.0312 213.812 70.2188C214.25 69.3438 214.688 68.4688 215.125 67.5938C215.625 66.5312 216.125 65.5 216.625 64.5C217.188 63.5 217.875 62.4688 218.688 61.4062L220.188 60.75C220.375 60.6875 220.594 60.625 220.844 60.5625C221.094 60.4375 221.375 60.375 221.688 60.375L223.094 60.5625C224.844 59.75 226.375 58.625 227.688 57.1875C229 55.6875 230.344 53.9062 231.719 51.8438L232.656 50.5312L233.875 51.2812C234.188 51.4688 234.625 51.6562 235.188 51.8438C235.75 51.9688 236.344 52.125 236.969 52.3125C238.094 52.5625 239.156 52.8438 240.156 53.1562C241.156 53.4688 241.969 53.9375 242.594 54.5625C242.969 55.5625 243.188 56.3125 243.25 56.8125C243.312 57.3125 243.406 57.8125 243.531 58.3125C243.719 59.375 243.875 60.4375 244 61.5C244.188 62.5625 244.312 63.75 244.375 65.0625C244.688 66.125 244.938 67.1875 245.125 68.25C245.375 69.25 245.594 70.2812 245.781 71.3438C246.094 72.8438 246.406 74.3125 246.719 75.75C247.031 77.125 247.438 78.4375 247.938 79.6875C248.438 79.6875 248.75 79.7188 248.875 79.7812C249.188 79.6562 249.5 79.5625 249.812 79.5C250.188 79.4375 250.594 79.375 251.031 79.3125L252.062 79.2188L252.438 80.1562C252.5 80.4688 252.812 80.7812 253.375 81.0938C254.188 81.1562 254.781 81.3438 255.156 81.6562C255.531 81.9062 255.875 82.1875 256.188 82.5C256.438 82.75 256.688 82.9375 256.938 83.0625L258.344 83.625L257.594 85.0312C256.969 86.1562 256.062 87.25 254.875 88.3125C253.75 89.3125 252.469 90.1562 251.031 90.8438C251.094 91.2188 251.125 91.5938 251.125 91.9688C251.188 92.2812 251.281 92.625 251.406 93C251.594 94.0625 251.75 95.1562 251.875 96.2812C252 97.4062 252 98.5625 251.875 99.75L251.688 100.125ZM224.594 83.9062C226.469 83.7812 228.156 83.6562 229.656 83.5312C231.219 83.3438 232.938 83.0625 234.812 82.6875C234.375 80.8125 233.906 78.875 233.406 76.875C232.906 74.8125 232.375 72.7812 231.812 70.7812L231.25 71.7188C230 73.0312 228.781 74.5 227.594 76.125C226.469 77.75 225.5 79.2812 224.688 80.7188C224.312 81.2812 223.938 81.8438 223.562 82.4062C223.188 82.9688 222.844 83.5312 222.531 84.0938C222.906 84.0312 223.25 84 223.562 84C223.938 84 224.281 83.9688 224.594 83.9062ZM277.094 90.9375C276.531 91.0625 276.125 91.4062 275.875 91.9688C275.625 92.4688 275.375 93 275.125 93.5625C274.938 94.125 274.719 94.6562 274.469 95.1562C274.281 95.5938 273.969 95.8125 273.531 95.8125C273.469 96.3125 273.281 96.75 272.969 97.125C272.719 97.5 272.469 97.9062 272.219 98.3438C271.969 98.7188 271.781 99.1562 271.656 99.6562C271.531 100.094 271.594 100.625 271.844 101.25C271.344 101.625 271.031 102.156 270.906 102.844C270.781 103.531 270.625 104.188 270.438 104.812C270.312 105.438 270.062 105.969 269.688 106.406C269.312 106.844 268.625 107.031 267.625 106.969C267.438 107.219 267.406 107.375 267.531 107.438C267.656 107.5 267.75 107.719 267.812 108.094C267.125 107.969 266.594 108 266.219 108.188C265.906 108.438 265.5 108.594 265 108.656C263.812 108.281 262.812 107.625 262 106.688C261.25 105.75 260.562 104.719 259.938 103.594C259.375 102.406 258.844 101.219 258.344 100.031C257.906 98.8438 257.469 97.8125 257.031 96.9375C257.219 96.25 257.25 95.5938 257.125 94.9688C257 94.2812 256.781 93.7188 256.469 93.2812C259.531 86.7812 262.875 79.8438 266.5 72.4688C270.125 65.0938 273.562 57.8125 276.812 50.625C278.25 51.1875 279.656 51.8438 281.031 52.5938C282.469 53.2812 283.75 54.0938 284.875 55.0312C286.062 55.9688 287.062 57.0625 287.875 58.3125C288.688 59.5 289.219 60.8438 289.469 62.3438C289.344 62.7188 289.188 62.875 289 62.8125C288.875 62.6875 288.75 62.7188 288.625 62.9062C288.875 63.2188 289 63.4375 289 63.5625C289.062 63.6875 289.062 63.8125 289 63.9375C289 64.0625 289 64.25 289 64.5C289 64.6875 289.094 64.9688 289.281 65.3438C289.031 65.2812 288.844 65.3125 288.719 65.4375C288.656 65.5625 288.469 65.5625 288.156 65.4375C288.406 66.125 288.469 66.6875 288.344 67.125C288.281 67.5625 288.156 67.9688 287.969 68.3438C287.781 68.6562 287.625 69.0312 287.5 69.4688C287.375 69.8438 287.406 70.3438 287.594 70.9688C287.406 70.9688 287.25 71.0312 287.125 71.1562C287.062 71.2188 287 71.3125 286.938 71.4375C286.875 71.5 286.781 71.5938 286.656 71.7188C286.594 71.7812 286.469 71.7812 286.281 71.7188C286.469 73.0938 286.531 74.4688 286.469 75.8438C286.406 77.2188 286.344 78.625 286.281 80.0625C286.281 81.4375 286.312 82.9062 286.375 84.4688C286.438 85.9688 286.656 87.5312 287.031 89.1562C289.281 87.8438 291.062 86.1562 292.375 84.0938C293.75 82.0312 294.844 79.7188 295.656 77.1562C296.531 74.5938 297.188 71.8438 297.625 68.9062C298.062 65.9688 298.531 62.9688 299.031 59.9062C299.594 59.3438 300.031 58.6562 300.344 57.8438C300.656 57.0312 300.938 56.1875 301.188 55.3125C301.438 54.375 301.688 53.4688 301.938 52.5938C302.188 51.6562 302.5 50.8125 302.875 50.0625C303.812 50.1875 304.594 50.5 305.219 51C305.906 51.4375 306.531 51.9375 307.094 52.5C307.656 53 308.25 53.5 308.875 54C309.5 54.4375 310.281 54.7188 311.219 54.8438C311.969 55.9062 312.656 56.9375 313.281 57.9375C313.906 58.9375 314.312 60 314.5 61.125C314.188 61.625 313.938 62.1875 313.75 62.8125C313.625 63.4375 313.469 64.0625 313.281 64.6875C313.094 65.3125 312.844 65.9062 312.531 66.4688C312.219 66.9688 311.781 67.4062 311.219 67.7812C311.031 69.4062 310.781 70.9062 310.469 72.2812C310.219 73.5938 309.938 74.9062 309.625 76.2188C309.375 77.5312 309.156 78.9062 308.969 80.3438C308.781 81.7188 308.719 83.25 308.781 84.9375C308.281 86.375 307.75 87.9062 307.188 89.5312C306.625 91.1562 306.188 92.625 305.875 93.9375C304.875 94.75 304.094 95.7188 303.531 96.8438C302.969 97.9688 302.375 99.0938 301.75 100.219C301.5 100.469 301.344 100.531 301.281 100.406C301.219 100.281 301 100.188 300.625 100.125C300.688 100.375 300.688 100.562 300.625 100.688C300.562 100.812 300.469 100.938 300.344 101.062C300.281 101.125 300.219 101.25 300.156 101.438C300.156 101.625 300.219 101.875 300.344 102.188C299.469 102.562 298.688 103.094 298 103.781C297.312 104.469 296.562 105.094 295.75 105.656C295 106.219 294.062 106.594 292.938 106.781C291.875 106.969 290.469 106.75 288.719 106.125C286.156 104.25 283.875 102.094 281.875 99.6562C279.938 97.2188 278.344 94.3125 277.094 90.9375ZM364.375 55.2188C364.438 55.6562 364.438 56 364.375 56.25C364.375 56.4375 364.344 56.625 364.281 56.8125C364.281 57 364.281 57.2188 364.281 57.4688C364.281 57.6562 364.344 57.9688 364.469 58.4062C363.156 60.5312 361.625 62 359.875 62.8125C358.188 63.5625 356.344 64.125 354.344 64.5C352.344 64.8125 350.281 65.1562 348.156 65.5312C346.094 65.9062 344.031 66.7188 341.969 67.9688C341.156 67.6562 340.406 67.6562 339.719 67.9688C339.094 68.2812 338.156 68.375 336.906 68.25C336.531 68.625 336.062 68.9062 335.5 69.0938C334.938 69.2188 334.375 69.375 333.812 69.5625C334.062 70.125 334.156 70.7188 334.094 71.3438C334.094 71.9062 334.188 72.375 334.375 72.75C336.562 72.9375 338.969 72.9062 341.594 72.6562C344.281 72.4062 346.906 72.25 349.469 72.1875C349.531 72.5 349.5 72.7188 349.375 72.8438C349.25 72.9062 349.219 73.0625 349.281 73.3125C349.719 73.625 350.156 74.0312 350.594 74.5312C351.031 74.9688 351.469 75.4062 351.906 75.8438C352.344 76.2812 352.781 76.6562 353.219 76.9688C353.719 77.2188 354.281 77.3125 354.906 77.25C355.156 77.75 355.312 78.3125 355.375 78.9375C355.5 79.5 355.438 80.0938 355.188 80.7188C354.188 81.4062 353.188 82.125 352.188 82.875C351.188 83.5625 350.125 84.1875 349 84.75C347.938 85.3125 346.781 85.7812 345.531 86.1562C344.344 86.4688 343 86.5938 341.5 86.5312C341.188 86.5312 340.938 86.5312 340.75 86.5312C340.625 86.5312 340.438 86.4375 340.188 86.25C339.688 86.5625 338.969 86.6562 338.031 86.5312C337.156 86.4062 336.469 86.5 335.969 86.8125C335.281 86.5 334.438 86.375 333.438 86.4375C332.5 86.4375 331.656 86.3125 330.906 86.0625C329.906 87.375 329 88.7812 328.188 90.2812C327.375 91.7812 326.656 93.375 326.031 95.0625C328.156 95.375 329.906 95.5 331.281 95.4375C332.719 95.375 334.062 95.2812 335.312 95.1562C336.562 94.9688 337.844 94.8125 339.156 94.6875C340.469 94.5 342.125 94.4375 344.125 94.5C345.375 93.8125 346.844 93.375 348.531 93.1875C350.281 92.9375 351.875 92.5625 353.312 92.0625C353.812 92.25 354.25 92.5938 354.625 93.0938C355 93.5312 355.344 93.9688 355.656 94.4062C356.031 94.7812 356.406 95.125 356.781 95.4375C357.156 95.75 357.625 95.875 358.188 95.8125C358.438 96.0625 358.594 96.375 358.656 96.75C358.781 97.0625 358.875 97.375 358.938 97.6875C359 98 359.094 98.2812 359.219 98.5312C359.406 98.7188 359.688 98.7812 360.062 98.7188C359.125 100.781 358.031 102.375 356.781 103.5C355.594 104.562 354.219 105.375 352.656 105.938C351.094 106.5 349.344 106.938 347.406 107.25C345.531 107.562 343.438 107.938 341.125 108.375C340.562 108.5 340.094 108.469 339.719 108.281C339.344 108.156 338.906 108.094 338.406 108.094C336.969 108.406 335.25 108.688 333.25 108.938C331.25 109.188 329.219 109.281 327.156 109.219C325.094 109.156 323.125 108.875 321.25 108.375C319.375 107.938 317.844 107.125 316.656 105.938C316.156 105.5 315.812 105 315.625 104.438C315.5 103.812 315.094 103.344 314.406 103.031C314.344 102.219 314.219 101.312 314.031 100.312C313.844 99.3125 313.656 98.2812 313.469 97.2188C313.281 96.0938 313.125 95 313 93.9375C312.938 92.875 313 91.9062 313.188 91.0312C313.375 90.0938 313.75 89.25 314.312 88.5C314.938 87.75 315.156 86.9375 314.969 86.0625C315.281 86 315.469 85.8438 315.531 85.5938C315.594 85.2812 315.844 85.1562 316.281 85.2188C316.656 84.0938 317.062 83.0312 317.5 82.0312C317.938 81.0312 318.375 80.0625 318.812 79.125C319.312 78.1875 319.781 77.25 320.219 76.3125C320.719 75.3125 321.188 74.2188 321.625 73.0312C320.75 72.2188 320.094 71.3438 319.656 70.4062C319.281 69.4062 319 68.4375 318.812 67.5C318.625 66.5 318.469 65.5 318.344 64.5C318.219 63.4375 318 62.375 317.688 61.3125C318.312 60.375 319.062 59.625 319.938 59.0625C320.875 58.4375 321.875 57.9375 322.938 57.5625C324 57.1875 325.156 56.875 326.406 56.625C327.656 56.375 328.969 56.0938 330.344 55.7812C332.844 54.9688 335.062 54.3438 337 53.9062C339 53.4688 340.938 53.125 342.812 52.875C344.75 52.5625 346.75 52.2812 348.812 52.0312C350.875 51.7812 353.219 51.4062 355.844 50.9062C356.406 51.4688 356.938 51.75 357.438 51.75C357.688 51.1875 357.969 51.0312 358.281 51.2812C358.656 51.4688 358.812 51.2812 358.75 50.7188C359.375 51.7812 360.156 52.6875 361.094 53.4375C362.094 54.125 363.188 54.7188 364.375 55.2188Z" fill="#ABF600"/>
</svg>
