<svg width="434" height="152" viewBox="0 0 434 152" fill="none" xmlns="http://www.w3.org/2000/svg">
<path d="M75.2812 32.2031C75.3438 33.3281 75.25 34.7344 75 36.4219C74.7812 38.0781 74.4688 39.9844 74.0625 42.1406C73.6875 44.2656 73.25 46.5781 72.75 49.0781C72.25 51.5469 71.75 54.1562 71.25 56.9062C70.7812 59.625 70.3438 62.4375 69.9375 65.3438C69.5312 68.2188 69.2188 71.1094 69 74.0156C68.9688 74.2344 68.9062 74.8594 68.8125 75.8906C68.75 76.9219 68.6562 78.2031 68.5312 79.7344C68.4375 81.2344 68.3281 82.9219 68.2031 84.7969C68.0781 86.6406 67.9688 88.5156 67.875 90.4219C67.7812 92.3281 67.7031 94.2031 67.6406 96.0469C67.6094 97.8594 67.625 99.4688 67.6875 100.875C67.7188 101.688 67.5156 102.469 67.0781 103.219C66.6719 103.969 66.1562 104.641 65.5312 105.234C64.9375 105.859 64.3125 106.344 63.6562 106.688C63.0312 107.062 62.5 107.25 62.0625 107.25C61.6875 107.25 61.2656 107.156 60.7969 106.969C60.3281 106.812 59.875 106.562 59.4375 106.219C59.0312 105.906 58.6719 105.5 58.3594 105C58.0781 104.469 57.9062 103.875 57.8438 103.219C57.8125 102.719 57.8594 101.859 57.9844 100.641C58.1094 99.3906 58.2812 97.9375 58.5 96.2812C58.7188 94.625 58.9531 92.8594 59.2031 90.9844C59.4844 89.0781 59.7188 87.2344 59.9062 85.4531C60.125 83.6719 60.2812 82.0156 60.375 80.4844C60.4688 78.9531 60.4844 77.7188 60.4219 76.7812C60.3594 76.0312 60.0625 75.4688 59.5312 75.0938C59 74.6875 58.3594 74.4844 57.6094 74.4844C56.6094 74.4844 55.2812 74.5469 53.625 74.6719C52 74.7969 50.2969 74.9375 48.5156 75.0938C46.7656 75.2188 45.0625 75.3438 43.4062 75.4688C41.75 75.5625 40.3906 75.6094 39.3281 75.6094C39.1094 75.6094 38.5156 75.6406 37.5469 75.7031C36.5781 75.7344 35.4219 75.7969 34.0781 75.8906C32.7344 75.9844 31.3125 76.0938 29.8125 76.2188C28.3125 76.3125 26.8906 76.4219 25.5469 76.5469C24.2344 76.6719 23.0938 76.8125 22.125 76.9688C21.1875 77.0938 20.625 77.2031 20.4375 77.2969C20.25 77.4219 20.0469 77.8125 19.8281 78.4688C19.6406 79.0938 19.4531 79.875 19.2656 80.8125C19.0781 81.7188 18.8906 82.75 18.7031 83.9062C18.5469 85.0312 18.3906 86.1562 18.2344 87.2812C18.1094 88.375 18 89.4375 17.9062 90.4688C17.8125 91.4688 17.75 92.3125 17.7188 93C17.6562 94.8438 17.5938 96.6719 17.5312 98.4844C17.4688 100.266 17.2969 101.859 17.0156 103.266C16.7344 104.672 16.2812 105.812 15.6562 106.688C15.0625 107.562 14.2031 108 13.0781 108C12.6719 108 12.1719 107.781 11.5781 107.344C10.9844 106.938 10.4062 106.422 9.84375 105.797C9.3125 105.172 8.84375 104.516 8.4375 103.828C8.03125 103.141 7.8125 102.516 7.78125 101.953C7.71875 101.359 7.75 100.672 7.875 99.8906C8 99.1094 8.15625 98.3125 8.34375 97.5C8.53125 96.6875 8.71875 95.9062 8.90625 95.1562C9.09375 94.4062 9.23438 93.7656 9.32812 93.2344C9.76562 91.2031 10.2031 88.875 10.6406 86.25C11.1094 83.5938 11.5625 80.75 12 77.7188C12.4375 74.6562 12.875 71.4531 13.3125 68.1094C13.75 64.7656 14.1719 61.375 14.5781 57.9375C14.9844 54.4688 15.375 51.0156 15.75 47.5781C16.125 44.1406 16.4844 40.7969 16.8281 37.5469C16.8594 37.1719 16.9844 36.7812 17.2031 36.375C17.4219 35.9375 17.7031 35.5625 18.0469 35.25C18.4219 34.9062 18.8438 34.6562 19.3125 34.5C19.8125 34.3125 20.3281 34.2656 20.8594 34.3594C22.3594 34.6406 23.4688 35.1406 24.1875 35.8594C24.9062 36.5469 25.3281 37.5156 25.4531 38.7656C25.6406 40.9219 25.5312 43.2344 25.125 45.7031C24.7188 48.1406 24.2344 50.6094 23.6719 53.1094C23.1406 55.6094 22.6406 58.0781 22.1719 60.5156C21.7344 62.9531 21.5625 65.25 21.6562 67.4062C21.6875 67.8438 21.9062 68.1875 22.3125 68.4375C22.7188 68.6562 23.2031 68.8281 23.7656 68.9531C24.3281 69.0781 24.9062 69.1562 25.5 69.1875C26.0938 69.2188 26.6094 69.2344 27.0469 69.2344C27.7031 69.2344 28.9531 69.2031 30.7969 69.1406C32.6719 69.0781 34.8281 68.9844 37.2656 68.8594C39.7344 68.7031 42.3125 68.5156 45 68.2969C47.7188 68.0469 50.25 67.7656 52.5938 67.4531C54.9375 67.1094 56.9219 66.7188 58.5469 66.2812C60.2031 65.8438 61.2031 65.3438 61.5469 64.7812C61.7656 64.4375 62 63.7344 62.25 62.6719C62.5312 61.5781 62.8125 60.2188 63.0938 58.5938C63.4062 56.9688 63.7031 55.1406 63.9844 53.1094C64.2656 51.0469 64.5156 48.875 64.7344 46.5938C64.9844 44.3125 65.1719 41.9844 65.2969 39.6094C65.4531 37.2031 65.5312 34.8438 65.5312 32.5312C65.5312 32.25 65.6562 31.8906 65.9062 31.4531C66.1875 31.0156 66.5469 30.5938 66.9844 30.1875C67.4531 29.7812 67.9688 29.4375 68.5312 29.1562C69.125 28.8437 69.75 28.6875 70.4062 28.6875C70.8438 28.6875 71.3281 28.7656 71.8594 28.9219C72.4219 29.0469 72.9531 29.25 73.4531 29.5312C73.9531 29.8125 74.375 30.1719 74.7188 30.6094C75.0625 31.0469 75.25 31.5781 75.2812 32.2031ZM169.172 63.0938C169.172 63.4062 169.078 63.7656 168.891 64.1719C167.734 66.4531 166.391 68.8125 164.859 71.25C163.328 73.6875 161.672 76.0781 159.891 78.4219C158.109 80.7656 156.234 82.9844 154.266 85.0781C152.328 87.1406 150.375 88.9688 148.406 90.5625C146.469 92.125 144.547 93.375 142.641 94.3125C140.766 95.2188 139 95.6719 137.344 95.6719C133.719 95.6719 130.875 94.2969 128.812 91.5469C126.781 88.7969 125.703 84.7344 125.578 79.3594L124.969 79.125C124.656 79.4375 124.141 80.0781 123.422 81.0469C122.734 82.0156 121.891 83.1406 120.891 84.4219C119.922 85.6719 118.828 86.9844 117.609 88.3594C116.422 89.7344 115.188 90.9844 113.906 92.1094C113.125 92.7656 112.172 93.5625 111.047 94.5C109.953 95.4062 108.703 96.2969 107.297 97.1719C105.922 98.0156 104.406 98.7656 102.75 99.4219C101.094 100.047 99.3438 100.406 97.5 100.5C95.2812 100.5 93.5312 100.078 92.25 99.2344C90.9688 98.3906 90 97.3125 89.3438 96C88.6875 94.6875 88.2656 93.2344 88.0781 91.6406C87.9219 90.0469 87.8438 88.5 87.8438 87C87.8438 86.8125 87.875 86.3438 87.9375 85.5938C88 84.8438 88.0938 83.9062 88.2188 82.7812C88.3438 81.625 88.5 80.3438 88.6875 78.9375C88.9062 77.5312 89.1562 76.1094 89.4375 74.6719C89.75 73.2031 90.0938 71.7656 90.4688 70.3594C90.875 68.9219 91.3438 67.6094 91.875 66.4219C92.1562 65.7656 92.4062 65.1562 92.625 64.5938C92.875 64.0312 93.125 63.5625 93.375 63.1875C93.6562 62.7812 93.9688 62.4688 94.3125 62.25C94.6562 62 95.0781 61.8594 95.5781 61.8281C96.2031 61.8281 96.7188 61.9531 97.125 62.2031C97.5625 62.4531 97.9062 62.7812 98.1562 63.1875C98.4062 63.5625 98.5781 63.9844 98.6719 64.4531C98.7969 64.9219 98.8594 65.3906 98.8594 65.8594C98.8594 66.3281 98.6406 67.25 98.2031 68.625C97.7969 70 97.3438 71.6719 96.8438 73.6406C96.3438 75.6094 95.875 77.8125 95.4375 80.25C95.0312 82.6562 94.8281 85.1562 94.8281 87.75C94.8281 88.25 94.875 88.8438 94.9688 89.5312C95.0625 90.1875 95.25 90.8281 95.5312 91.4531C95.8125 92.0469 96.1875 92.5625 96.6562 93C97.1562 93.4062 97.7969 93.6094 98.5781 93.6094C99.6406 93.5469 100.734 93.3281 101.859 92.9531C102.984 92.5469 104.094 92.0469 105.188 91.4531C106.312 90.8281 107.391 90.1406 108.422 89.3906C109.453 88.6094 110.391 87.8125 111.234 87C112.141 86.1562 113.094 85.1875 114.094 84.0938C115.125 82.9688 116.125 81.8125 117.094 80.625C118.062 79.4062 118.969 78.2031 119.812 77.0156C120.656 75.8281 121.359 74.7344 121.922 73.7344C122.203 73.2031 122.594 72.4219 123.094 71.3906C123.625 70.3594 124.141 69.2656 124.641 68.1094C125.172 66.9531 125.641 65.8594 126.047 64.8281C126.484 63.7969 126.766 63.0156 126.891 62.4844C127.016 62.0156 127.109 61.5781 127.172 61.1719C127.266 60.7656 127.359 60.375 127.453 60C127.547 59.5938 127.656 59.1719 127.781 58.7344C127.906 58.2969 128.062 57.7969 128.25 57.2344C128.344 57.0156 128.516 56.7812 128.766 56.5312C129.047 56.25 129.375 56 129.75 55.7812C130.125 55.5625 130.516 55.3906 130.922 55.2656C131.328 55.1094 131.719 55.0312 132.094 55.0312C132.969 55.0312 133.625 55.2969 134.062 55.8281C134.531 56.3594 134.797 57.0156 134.859 57.7969C134.859 57.8281 134.781 58.1875 134.625 58.875C134.5 59.5625 134.328 60.4688 134.109 61.5938C133.891 62.7188 133.656 64 133.406 65.4375C133.188 66.875 132.969 68.3594 132.75 69.8906C132.531 71.3906 132.344 72.875 132.188 74.3438C132.062 75.7812 132 77.0781 132 78.2344C132 81.5469 132.547 84.1094 133.641 85.9219C134.766 87.7031 136.234 88.5938 138.047 88.5938C139.609 88.5938 141.234 88.1406 142.922 87.2344C144.641 86.2969 146.359 85.0781 148.078 83.5781C149.828 82.0781 151.531 80.4062 153.188 78.5625C154.875 76.6875 156.484 74.8281 158.016 72.9844C159.547 71.1094 160.969 69.3281 162.281 67.6406C163.594 65.9531 164.734 64.5312 165.703 63.375C166.672 62.3438 167.438 61.8281 168 61.8281C168.344 61.8281 168.625 61.9531 168.844 62.2031C169.062 62.4531 169.172 62.75 169.172 63.0938ZM262.031 72.3281C262.031 72.6094 261.969 72.9688 261.844 73.4062C261.75 73.8438 261.609 74.3125 261.422 74.8125C261.266 75.3125 261.062 75.8281 260.812 76.3594C260.594 76.8594 260.344 77.3125 260.062 77.7188C259.531 78.5312 258.828 79.4688 257.953 80.5312C257.109 81.5938 256.172 82.7031 255.141 83.8594C254.109 84.9844 253 86.125 251.812 87.2812C250.656 88.4062 249.516 89.4375 248.391 90.375C247.484 91.125 246.438 91.9531 245.25 92.8594C244.062 93.7656 242.812 94.6094 241.5 95.3906C240.188 96.1719 238.844 96.8281 237.469 97.3594C236.094 97.8594 234.797 98.1094 233.578 98.1094C232.484 98.1094 231.484 97.9531 230.578 97.6406C229.703 97.3281 228.891 96.75 228.141 95.9062C227.422 95.0312 226.781 93.8438 226.219 92.3438C225.656 90.8438 225.172 88.9062 224.766 86.5312C224.578 85.5312 224.406 84.4688 224.25 83.3438C224.125 82.1875 223.984 81.0469 223.828 79.9219C223.703 78.7969 223.578 77.7188 223.453 76.6875C223.328 75.625 223.172 74.7031 222.984 73.9219C222.828 73.1094 222.641 72.4688 222.422 72C222.234 71.5312 222.016 71.2969 221.766 71.2969C221.359 71.2969 220.781 71.6406 220.031 72.3281C219.312 73.0156 218.453 74.0156 217.453 75.3281C216.484 76.6094 215.406 78.1562 214.219 79.9688C213.062 81.7812 211.844 83.8125 210.562 86.0625C208.031 90.5625 205.891 93.9844 204.141 96.3281C202.391 98.6719 200.797 99.8438 199.359 99.8438C197.203 99.8438 195.75 98.8281 195 96.7969C194.312 94.7344 193.891 91.2812 193.734 86.4375C193.641 81.7188 193.297 78.0938 192.703 75.5625C192.141 73 191.406 71.7188 190.5 71.7188C189.938 71.7188 189.109 72.2344 188.016 73.2656C186.953 74.2656 185.734 75.6562 184.359 77.4375C183.016 79.2188 181.547 81.3281 179.953 83.7656C178.359 86.1719 176.766 88.7969 175.172 91.6406C174.734 92.3906 174.234 93.25 173.672 94.2188C173.109 95.1875 172.531 96.1719 171.938 97.1719C171.375 98.1406 170.812 99.0625 170.25 99.9375C169.719 100.812 169.25 101.531 168.844 102.094C167.938 103.406 166.844 104.062 165.562 104.062C163.188 104.062 161.625 102.844 160.875 100.406C160.688 99.7812 160.531 99.2812 160.406 98.9062C160.312 98.5 160.234 98.1094 160.172 97.7344C160.109 97.3281 160.062 96.8906 160.031 96.4219C160.031 95.9531 160.031 95.3438 160.031 94.5938C160.031 93.3438 160.062 92.2031 160.125 91.1719C160.219 90.1094 160.328 89.0469 160.453 87.9844C160.578 86.9219 160.734 85.7812 160.922 84.5625C161.109 83.3438 161.297 81.9219 161.484 80.2969C161.641 78.9531 161.781 77.5156 161.906 75.9844C162.031 74.4531 162.141 72.9688 162.234 71.5312C162.359 70.0625 162.469 68.7188 162.562 67.5C162.688 66.2812 162.844 65.3125 163.031 64.5938C163.125 64.2188 163.344 63.7812 163.688 63.2812C164.031 62.7812 164.422 62.3125 164.859 61.875C165.328 61.4062 165.812 61.0156 166.312 60.7031C166.812 60.3594 167.25 60.1875 167.625 60.1875C168.281 60.1875 168.812 60.3438 169.219 60.6562C169.656 60.9375 170 61.3281 170.25 61.8281C170.531 62.3281 170.719 62.9219 170.812 63.6094C170.938 64.2656 171 64.9531 171 65.6719C171 66.4219 170.922 67.3594 170.766 68.4844C170.641 69.6094 170.469 70.8281 170.25 72.1406C170.031 73.4531 169.781 74.8125 169.5 76.2188C169.25 77.625 169 78.9688 168.75 80.25C168.5 81.5312 168.266 82.7188 168.047 83.8125C167.859 84.875 167.719 85.75 167.625 86.4375C167.344 88.1562 167.156 89.5312 167.062 90.5625C166.969 91.5625 166.922 92.375 166.922 93C167.328 92.5938 167.844 91.9844 168.469 91.1719C169.094 90.3594 169.781 89.4062 170.531 88.3125C171.281 87.2188 172.062 86.0156 172.875 84.7031C173.719 83.3906 174.562 82.0469 175.406 80.6719C176 79.7031 176.656 78.6094 177.375 77.3906C178.125 76.1719 178.891 74.9531 179.672 73.7344C180.484 72.4844 181.281 71.3125 182.062 70.2188C182.844 69.125 183.562 68.2031 184.219 67.4531C185.531 65.9531 186.891 64.8125 188.297 64.0312C189.703 63.25 191.172 62.8594 192.703 62.8594C194.203 62.8594 195.5 63.4531 196.594 64.6406C197.719 65.7969 198.469 67.3125 198.844 69.1875C199.031 70.0625 199.172 71.0781 199.266 72.2344C199.391 73.3594 199.5 74.5469 199.594 75.7969C199.688 77.0469 199.766 78.2969 199.828 79.5469C199.922 80.7969 200.016 81.9844 200.109 83.1094C200.203 84.2031 200.328 85.1094 200.484 85.8281C200.672 86.5469 200.859 87.125 201.047 87.5625C201.234 87.9688 201.406 88.2656 201.562 88.4531C201.719 88.6094 201.844 88.6875 201.938 88.6875C202.531 88.6875 203.531 87.4531 204.938 84.9844C205.656 83.7344 206.453 82.3438 207.328 80.8125C208.203 79.2812 209.172 77.5938 210.234 75.75C211.297 73.9375 212.438 72.1875 213.656 70.5C214.875 68.8125 216.062 67.3281 217.219 66.0469C218.406 64.7344 219.516 63.7031 220.547 62.9531C221.578 62.1719 222.453 61.7812 223.172 61.7812C223.641 61.7812 224.125 61.8281 224.625 61.9219C225.125 62.0156 225.609 62.1562 226.078 62.3438C226.547 62.5312 226.953 62.7656 227.297 63.0469C227.672 63.2969 227.953 63.5781 228.141 63.8906C228.609 64.6406 228.938 65.5 229.125 66.4688C229.344 67.4062 229.5 68.5 229.594 69.75C229.688 70.9688 229.766 72.3438 229.828 73.875C229.922 75.375 230.062 77.0469 230.25 78.8906C230.688 82.7969 231.359 85.7188 232.266 87.6562C233.203 89.5625 234.531 90.5156 236.25 90.5156C236.906 90.5156 237.734 90.2969 238.734 89.8594C239.734 89.4219 240.797 88.8594 241.922 88.1719C243.047 87.4531 244.188 86.6562 245.344 85.7812C246.5 84.875 247.578 83.9844 248.578 83.1094C249.578 82.2344 250.531 81.3594 251.438 80.4844C252.375 79.5781 253.312 78.6719 254.25 77.7656C255.188 76.8281 256.141 75.8594 257.109 74.8594C258.109 73.8594 259.172 72.7969 260.297 71.6719C260.672 71.2969 261.016 71.1094 261.328 71.1094C261.797 71.1094 262.031 71.5156 262.031 72.3281ZM284.156 62.2031C284.156 62.1406 284.109 61.9688 284.016 61.6875C283.922 61.4062 283.781 61.125 283.594 60.8438C283.406 60.5312 283.172 60.2656 282.891 60.0469C282.641 59.7969 282.359 59.6719 282.047 59.6719H281.953C280.797 59.7969 279.562 60.1875 278.25 60.8438C276.938 61.4688 275.547 62.4531 274.078 63.7969C272.609 65.1094 271.062 66.8125 269.438 68.9062C267.812 71 266.125 73.5469 264.375 76.5469C263.844 77.4531 263.25 78.4531 262.594 79.5469C261.969 80.6094 261.359 81.7969 260.766 83.1094C260.203 84.3906 259.719 85.7656 259.312 87.2344C258.938 88.7031 258.75 90.25 258.75 91.875C258.75 92.8438 259.094 93.5781 259.781 94.0781C260.5 94.5781 261.234 94.8281 261.984 94.8281C262.766 94.8281 263.781 94.4062 265.031 93.5625C266.281 92.6875 267.625 91.5469 269.062 90.1406C270.531 88.7031 272.016 87.0781 273.516 85.2656C275.047 83.4219 276.453 81.5312 277.734 79.5938C279.047 77.6562 280.172 75.75 281.109 73.875C282.078 72 282.734 70.2969 283.078 68.7656C283.172 68.2969 283.281 67.75 283.406 67.125C283.531 66.4688 283.641 65.8281 283.734 65.2031C283.859 64.5469 283.953 63.9531 284.016 63.4219C284.109 62.8594 284.156 62.4531 284.156 62.2031ZM320.812 67.5938C320.812 68.6562 320.5 69.7969 319.875 71.0156C319.281 72.2031 318.609 73.2969 317.859 74.2969C315.891 76.9531 313.828 79.3906 311.672 81.6094C309.547 83.7969 307.391 85.875 305.203 87.8438C302.922 89.9062 300.641 91.5156 298.359 92.6719C296.109 93.8281 294.078 94.4062 292.266 94.4062C291.484 94.4062 290.703 94.2188 289.922 93.8438C289.172 93.4688 288.453 92.9844 287.766 92.3906C287.109 91.7656 286.516 91.0469 285.984 90.2344C285.484 89.4219 285.094 88.5781 284.812 87.7031C284.656 87.2344 284.516 86.7031 284.391 86.1094C284.266 85.4844 284.141 84.9219 284.016 84.4219C283.891 83.8906 283.75 83.4531 283.594 83.1094C283.438 82.7344 283.266 82.5469 283.078 82.5469C282.953 82.5469 282.688 82.75 282.281 83.1562C281.875 83.5625 281.391 84.0938 280.828 84.75C280.297 85.375 279.719 86.0938 279.094 86.9062C278.469 87.6875 277.844 88.4531 277.219 89.2031C276.625 89.9531 276.078 90.6406 275.578 91.2656C275.109 91.8906 274.734 92.3594 274.453 92.6719C273.484 93.7656 272.328 94.8906 270.984 96.0469C269.672 97.1719 268.344 98.2031 267 99.1406C265.688 100.078 264.469 100.844 263.344 101.438C262.25 102.031 261.438 102.328 260.906 102.328C259.719 102.328 258.562 102.141 257.438 101.766C256.344 101.359 255.375 100.781 254.531 100.031C253.688 99.2812 253 98.3594 252.469 97.2656C251.969 96.1719 251.719 94.9219 251.719 93.5156C251.719 91.2031 252.172 88.5625 253.078 85.5938C254.016 82.625 255.234 79.6094 256.734 76.5469C258.266 73.4844 260.016 70.5469 261.984 67.7344C263.953 64.8906 266 62.4531 268.125 60.4219C270.594 58.0781 273.172 56.3594 275.859 55.2656C278.578 54.1406 281.359 53.5781 284.203 53.5781C284.734 53.5781 285.188 53.6875 285.562 53.9062C285.969 54.125 286.312 54.4062 286.594 54.75C286.875 55.0938 287.125 55.4844 287.344 55.9219C287.562 56.3281 287.781 56.75 288 57.1875C288.125 57.4688 288.391 57.7812 288.797 58.125C289.203 58.4688 289.625 58.8281 290.062 59.2031C290.5 59.5469 290.875 59.8906 291.188 60.2344C291.531 60.5781 291.703 60.9062 291.703 61.2188C291.703 61.875 291.562 62.6094 291.281 63.4219C291.031 64.2031 290.75 65.125 290.438 66.1875C290.125 67.2188 289.828 68.4062 289.547 69.75C289.297 71.0625 289.172 72.5781 289.172 74.2969C289.172 75.4219 289.266 76.7031 289.453 78.1406C289.672 79.5781 289.984 80.9531 290.391 82.2656C290.828 83.5469 291.375 84.625 292.031 85.5C292.688 86.375 293.453 86.8125 294.328 86.8125C295.391 86.8125 296.453 86.5156 297.516 85.9219C298.578 85.2969 299.797 84.4375 301.172 83.3438C304.234 80.9062 307.141 78.2344 309.891 75.3281C312.641 72.4219 315.453 69.5312 318.328 66.6562C318.828 66.1562 319.297 65.9062 319.734 65.9062C320.453 65.9062 320.812 66.4688 320.812 67.5938ZM393.234 78.8438C393.422 78.7812 393.531 78.75 393.562 78.75C393.781 78.75 393.891 78.9375 393.891 79.3125C393.891 79.6875 393.797 80.1719 393.609 80.7656C393.422 81.3281 393.141 81.9375 392.766 82.5938C392.422 83.25 391.984 83.9062 391.453 84.5625C390.922 85.2188 390.328 85.8125 389.672 86.3438C388.203 87.5312 386.578 88.6562 384.797 89.7188C383.047 90.75 381.203 91.6562 379.266 92.4375C377.328 93.2188 375.328 93.8281 373.266 94.2656C371.203 94.7031 369.125 94.9219 367.031 94.9219C364.781 94.9219 362.812 94.5781 361.125 93.8906C359.438 93.2031 357.984 92.2969 356.766 91.1719C355.547 90.0469 354.531 88.7656 353.719 87.3281C352.906 85.8906 352.234 84.4219 351.703 82.9219C351.172 81.4219 350.75 79.9531 350.438 78.5156C350.125 77.0781 349.859 75.7969 349.641 74.6719C349.453 73.5469 349.281 72.6406 349.125 71.9531C349 71.2656 348.828 70.9219 348.609 70.9219C347.859 70.9219 347.078 71.3594 346.266 72.2344C345.453 73.1094 344.609 74.2656 343.734 75.7031C342.891 77.1406 341.984 78.7812 341.016 80.625C340.078 82.4375 339.094 84.3125 338.062 86.25C337.062 88.1562 336.016 90.0312 334.922 91.875C333.859 93.6875 332.734 95.3125 331.547 96.75C330.391 98.1875 329.188 99.3438 327.938 100.219C326.719 101.094 325.453 101.531 324.141 101.531C322.828 101.531 321.766 101.031 320.953 100.031C320.172 99.0312 319.562 97.75 319.125 96.1875C318.688 94.5938 318.391 92.8125 318.234 90.8438C318.109 88.875 318.047 86.9219 318.047 84.9844C318.047 83.2656 318.078 81.6406 318.141 80.1094C318.203 78.5781 318.234 77.2656 318.234 76.1719C318.234 75.7344 318.219 75.3594 318.188 75.0469C318.156 74.7031 318.125 74.3906 318.094 74.1094C318.062 73.8281 318.031 73.5469 318 73.2656C317.969 72.9844 317.953 72.6562 317.953 72.2812C317.953 71.2188 318.094 70.1719 318.375 69.1406C318.656 68.1094 319.016 67.2031 319.453 66.4219C319.891 65.6094 320.375 64.9531 320.906 64.4531C321.438 63.9531 321.969 63.7031 322.5 63.7031C323.062 63.7031 323.594 63.7812 324.094 63.9375C324.594 64.0938 325.031 64.3906 325.406 64.8281C325.812 65.2656 326.125 65.875 326.344 66.6562C326.594 67.4062 326.719 68.375 326.719 69.5625C326.719 71 326.641 72.6562 326.484 74.5312C326.328 76.375 326.156 78.2344 325.969 80.1094C325.781 81.9844 325.609 83.7656 325.453 85.4531C325.297 87.1406 325.219 88.5469 325.219 89.6719C325.219 91.2031 325.406 91.9688 325.781 91.9688C326.531 91.9688 327.281 91.625 328.031 90.9375C328.812 90.25 329.578 89.3281 330.328 88.1719C331.109 87.0156 331.891 85.6719 332.672 84.1406C333.484 82.6094 334.281 80.9844 335.062 79.2656C336.5 76.0781 337.859 73.3125 339.141 70.9688C340.453 68.5938 341.797 66.625 343.172 65.0625C344.547 63.4688 346.031 62.2969 347.625 61.5469C349.25 60.7656 351.109 60.375 353.203 60.375C353.547 60.375 353.859 60.5 354.141 60.75C354.422 60.9688 354.656 61.2812 354.844 61.6875C355.031 62.0625 355.172 62.5 355.266 63C355.391 63.4688 355.453 63.9375 355.453 64.4062C355.453 67.125 355.547 69.5781 355.734 71.7656C355.953 73.9219 356.297 75.8438 356.766 77.5312C357.234 79.2188 357.844 80.6719 358.594 81.8906C359.344 83.1094 360.25 84.125 361.312 84.9375C361.719 85.2812 362.281 85.6094 363 85.9219C363.719 86.2031 364.5 86.4531 365.344 86.6719C366.219 86.8594 367.094 87.0156 367.969 87.1406C368.875 87.2656 369.688 87.3281 370.406 87.3281C371.25 87.3281 372.328 87.2344 373.641 87.0469C374.984 86.8594 376.422 86.5625 377.953 86.1562C379.484 85.75 381.047 85.25 382.641 84.6562C384.234 84.0312 385.734 83.2969 387.141 82.4531C387.609 82.1719 388.047 81.9062 388.453 81.6562C388.859 81.4062 389.281 81.1562 389.719 80.9062C390.188 80.625 390.703 80.3281 391.266 80.0156C391.828 79.6719 392.484 79.2812 393.234 78.8438ZM411.375 61.6875C411.375 61.3438 411.281 61.0312 411.094 60.75C410.906 60.4688 410.672 60.2344 410.391 60.0469C410.141 59.8594 409.859 59.7188 409.547 59.625C409.266 59.5 409.016 59.4375 408.797 59.4375C407.422 59.4375 406.016 59.9375 404.578 60.9375C403.141 61.9062 401.797 63.2656 400.547 65.0156C399.297 66.7656 398.203 68.8438 397.266 71.25C396.328 73.6562 395.688 76.2656 395.344 79.0781C395.781 78.7969 396.359 78.3906 397.078 77.8594C397.797 77.3281 398.562 76.75 399.375 76.125C400.219 75.4688 401.047 74.8125 401.859 74.1562C402.703 73.5 403.453 72.8906 404.109 72.3281C405.547 71.1094 406.734 70.0312 407.672 69.0938C408.609 68.125 409.344 67.25 409.875 66.4688C410.438 65.6562 410.828 64.875 411.047 64.125C411.266 63.3438 411.375 62.5312 411.375 61.6875ZM433.125 81.7031C433.125 82.7969 432.719 83.9844 431.906 85.2656C431.094 86.5469 429.938 87.9844 428.438 89.5781C426.719 91.3906 424.828 93.0781 422.766 94.6406C420.703 96.1719 418.578 97.5156 416.391 98.6719C414.203 99.7969 411.984 100.688 409.734 101.344C407.484 102 405.312 102.328 403.219 102.328C398.312 102.328 394.516 100.75 391.828 97.5938C389.141 94.4375 387.797 89.8125 387.797 83.7188C387.797 81.7812 387.969 79.8125 388.312 77.8125C388.656 75.7812 389.156 73.7812 389.812 71.8125C390.5 69.8438 391.344 67.9375 392.344 66.0938C393.375 64.25 394.562 62.5312 395.906 60.9375C396.75 59.9688 397.688 58.9844 398.719 57.9844C399.75 56.9844 400.891 56.0938 402.141 55.3125C403.391 54.5 404.75 53.8438 406.219 53.3438C407.719 52.8438 409.344 52.5938 411.094 52.5938C412.344 52.5938 413.469 52.8438 414.469 53.3438C415.469 53.8125 416.312 54.4219 417 55.1719C417.688 55.9219 418.203 56.7656 418.547 57.7031C418.922 58.6406 419.109 59.5625 419.109 60.4688C419.109 62.375 418.594 64.3125 417.562 66.2812C416.531 68.2188 415.078 70.1875 413.203 72.1875C411.328 74.1562 409.078 76.1406 406.453 78.1406C403.828 80.1094 400.906 82.0781 397.688 84.0469C397.25 84.2969 396.812 84.5781 396.375 84.8906C395.938 85.1719 395.719 85.5312 395.719 85.9688C395.719 86.9062 395.844 87.8906 396.094 88.9219C396.344 89.9531 396.797 90.9062 397.453 91.7812C398.109 92.625 398.984 93.3281 400.078 93.8906C401.203 94.4531 402.625 94.7344 404.344 94.7344C406.531 94.7344 408.75 94.3906 411 93.7031C413.281 92.9844 415.5 92 417.656 90.75C419.844 89.5 421.953 88.0156 423.984 86.2969C426.047 84.5781 427.969 82.7188 429.75 80.7188C430.75 79.625 431.547 79.0781 432.141 79.0781C432.484 79.0781 432.734 79.2812 432.891 79.6875C433.047 80.0938 433.125 80.7656 433.125 81.7031Z" fill="#ABF600"/>
</svg>
