<svg width="434" height="154" viewBox="0 0 434 154" fill="none" xmlns="http://www.w3.org/2000/svg">
<path d="M75.5156 34.75C75.5156 36.3438 75.3281 38.4062 74.9531 40.9375C74.6094 43.4688 74.125 46.4375 73.5 49.8438C72.8125 53.5312 72.0938 57.5312 71.3438 61.8438C70.5938 66.125 70.0469 70.5 69.7031 74.9688C69.7031 75.1875 69.6719 75.7344 69.6094 76.6094C69.5469 77.4844 69.4688 78.5938 69.375 79.9375C69.2812 81.2812 69.1719 82.8125 69.0469 84.5312C68.9531 86.2188 68.8594 88.0156 68.7656 89.9219C68.6719 91.7969 68.5938 93.7188 68.5312 95.6875C68.4688 97.6562 68.4375 99.5781 68.4375 101.453C68.4375 102.516 68.2344 103.469 67.8281 104.312C67.4531 105.125 66.9375 105.812 66.2812 106.375C65.625 106.969 64.8594 107.406 63.9844 107.688C63.1094 108 62.1875 108.156 61.2188 108.156C60.6562 108.156 60.0312 108.031 59.3438 107.781C58.6875 107.562 58.0625 107.219 57.4688 106.75C56.9062 106.312 56.4219 105.75 56.0156 105.062C55.6094 104.375 55.4062 103.562 55.4062 102.625C55.4062 102 55.4688 101.125 55.5938 100C55.75 98.875 55.9219 97.6094 56.1094 96.2031C56.3281 94.7969 56.5625 93.2969 56.8125 91.7031C57.0625 90.1094 57.2812 88.5312 57.4688 86.9688C57.6875 85.4062 57.8594 83.9219 57.9844 82.5156C58.1406 81.1094 58.2188 79.8906 58.2188 78.8594C58.2188 78.2969 58.1719 77.7969 58.0781 77.3594C57.9844 76.9219 57.7188 76.7031 57.2812 76.7031C56.3438 76.7031 55.0781 76.7656 53.4844 76.8906C51.8906 76.9844 50.2188 77.1094 48.4688 77.2656C46.75 77.3906 45.0625 77.5156 43.4062 77.6406C41.7812 77.7344 40.4531 77.7812 39.4219 77.7812C39.2031 77.7812 38.6562 77.8125 37.7812 77.875C36.9375 77.9062 35.9219 77.9531 34.7344 78.0156C33.5781 78.0781 32.3281 78.1719 30.9844 78.2969C29.6406 78.3906 28.375 78.4844 27.1875 78.5781C26 78.6719 24.9688 78.7812 24.0938 78.9062C23.25 79 22.7188 79.0938 22.5 79.1875C22.3438 79.3438 22.1562 79.9844 21.9375 81.1094C21.75 82.2344 21.5469 83.5469 21.3281 85.0469C21.1406 86.5156 20.9688 88.0156 20.8125 89.5469C20.6562 91.0469 20.5469 92.2656 20.4844 93.2031C20.4844 95.1719 20.3594 97.0938 20.1094 98.9688C19.8906 100.844 19.4844 102.516 18.8906 103.984C18.3281 105.453 17.5781 106.625 16.6406 107.5C15.7031 108.406 14.5312 108.859 13.125 108.859C12.25 108.859 11.4531 108.641 10.7344 108.203C10.0469 107.766 9.45312 107.203 8.95312 106.516C8.45312 105.828 8.0625 105.094 7.78125 104.312C7.5 103.5 7.35938 102.75 7.35938 102.062C7.35938 101.406 7.42188 100.641 7.54688 99.7656C7.70312 98.8906 7.875 98.0156 8.0625 97.1406C8.25 96.2656 8.42188 95.4688 8.57812 94.75C8.73438 94 8.82812 93.4531 8.85938 93.1094C9.26562 91.2031 9.67188 89 10.0781 86.5C10.5156 84 10.9375 81.2969 11.3438 78.3906C11.7812 75.4531 12.2031 72.375 12.6094 69.1562C13.0469 65.9375 13.4531 62.6719 13.8281 59.3594C14.2344 56.0156 14.625 52.6875 15 49.375C15.375 46.0625 15.7188 42.8594 16.0312 39.7656C16.0938 39.2969 16.2656 38.8125 16.5469 38.3125C16.8594 37.7812 17.25 37.3125 17.7188 36.9062C18.2188 36.4688 18.7812 36.1094 19.4062 35.8281C20.0312 35.5469 20.6875 35.4062 21.375 35.4062C21.5312 35.4062 21.6719 35.4219 21.7969 35.4531C21.9219 35.4531 22.0625 35.4688 22.2188 35.5C23.4062 35.7188 24.3594 36.0312 25.0781 36.4375C25.7969 36.8125 26.3438 37.2969 26.7188 37.8906C27.0938 38.4844 27.3438 39.1875 27.4688 40C27.5938 40.8125 27.6562 41.75 27.6562 42.8125C27.6562 44.8125 27.5156 46.9062 27.2344 49.0938C26.9531 51.25 26.5625 53.4531 26.0625 55.7031C25.8438 56.7344 25.625 57.8125 25.4062 58.9375C25.2188 60.0625 25.0469 61.1875 24.8906 62.3125C24.7344 63.4375 24.6094 64.5312 24.5156 65.5938C24.4219 66.625 24.375 67.5938 24.375 68.5C24.4375 68.5938 24.5938 68.6719 24.8438 68.7344C25.125 68.7969 25.4375 68.8438 25.7812 68.875C26.125 68.9062 26.4688 68.9375 26.8125 68.9688C27.1875 68.9688 27.5 68.9688 27.75 68.9688C28.2188 68.9688 29.0156 68.9688 30.1406 68.9688C31.2656 68.9375 32.5781 68.8906 34.0781 68.8281C35.5781 68.7656 37.2031 68.7031 38.9531 68.6406C40.7344 68.5469 42.5156 68.4375 44.2969 68.3125C46.1094 68.1875 47.8594 68.0469 49.5469 67.8906C51.2344 67.7031 52.7656 67.5 54.1406 67.2812C55.5156 67.0625 56.6406 66.8125 57.5156 66.5312C58.4219 66.25 58.9844 65.9375 59.2031 65.5938C59.3594 65.375 59.5625 64.75 59.8125 63.7188C60.0625 62.6562 60.3281 61.3281 60.6094 59.7344C60.9219 58.1406 61.2188 56.3438 61.5 54.3438C61.8125 52.3125 62.0938 50.2031 62.3438 48.0156C62.5938 45.8281 62.7969 43.625 62.9531 41.4062C63.1094 39.1875 63.1875 37.0781 63.1875 35.0781C63.1875 34.7031 63.3438 34.2344 63.6562 33.6719C63.9688 33.1094 64.3906 32.5625 64.9219 32.0312C65.4531 31.4688 66.0938 31 66.8438 30.625C67.5938 30.25 68.3906 30.0625 69.2344 30.0625C69.7969 30.0625 70.4375 30.1562 71.1562 30.3438C71.875 30.5312 72.5469 30.8125 73.1719 31.1875C73.8281 31.5625 74.375 32.0469 74.8125 32.6406C75.25 33.2344 75.4844 33.9375 75.5156 34.75ZM169.359 64.4219C169.359 64.6719 169.328 64.9219 169.266 65.1719C169.203 65.4219 169.094 65.7031 168.938 66.0156C167.812 68.2656 166.484 70.5938 164.953 73C163.422 75.4062 161.75 77.7656 159.938 80.0781C158.156 82.3594 156.281 84.5312 154.312 86.5938C152.344 88.6562 150.359 90.4688 148.359 92.0312C146.391 93.5625 144.438 94.7812 142.5 95.6875C140.562 96.5938 138.719 97.0469 136.969 97.0469C135.188 97.0469 133.547 96.7812 132.047 96.25C130.578 95.6875 129.297 94.7969 128.203 93.5781C127.109 92.3594 126.25 90.7969 125.625 88.8906C125.031 86.9844 124.734 84.6719 124.734 81.9531C124.234 82.7656 123.625 83.6875 122.906 84.7188C122.219 85.7188 121.469 86.7344 120.656 87.7656C119.875 88.7969 119.047 89.7969 118.172 90.7656C117.328 91.7344 116.484 92.5781 115.641 93.2969C114.891 93.9531 113.953 94.75 112.828 95.6875C111.734 96.5938 110.469 97.4844 109.031 98.3594C107.625 99.2031 106.062 99.9531 104.344 100.609C102.625 101.234 100.781 101.594 98.8125 101.688C96.25 101.688 94.2188 101.25 92.7188 100.375C91.25 99.4688 90.1406 98.3281 89.3906 96.9531C88.6406 95.5469 88.1562 94 87.9375 92.3125C87.75 90.625 87.6562 88.9844 87.6562 87.3906C87.6562 87.2344 87.6719 86.7969 87.7031 86.0781C87.7656 85.3594 87.8438 84.4688 87.9375 83.4062C88.0625 82.3438 88.2188 81.1562 88.4062 79.8438C88.625 78.5 88.875 77.1094 89.1562 75.6719C89.4688 74.2344 89.8281 72.7969 90.2344 71.3594C90.6406 69.9219 91.1094 68.5625 91.6406 67.2812C91.9219 66.625 92.1875 66.0312 92.4375 65.5C92.7188 64.9375 93.0312 64.4688 93.375 64.0938C93.7188 63.6875 94.1406 63.3594 94.6406 63.1094C95.1406 62.8594 95.7656 62.7188 96.5156 62.6875C97.4844 62.6875 98.2812 62.8594 98.9062 63.2031C99.5625 63.5156 100.078 63.9219 100.453 64.4219C100.859 64.9219 101.141 65.4844 101.297 66.1094C101.453 66.7344 101.531 67.3438 101.531 67.9375C101.531 68.4062 101.312 69.2344 100.875 70.4219C100.469 71.6094 100.016 73.0781 99.5156 74.8281C99.0156 76.5781 98.5469 78.5781 98.1094 80.8281C97.7031 83.0781 97.5 85.5 97.5 88.0938C97.5 89.4062 97.7188 90.4531 98.1562 91.2344C98.5938 91.9844 99.1719 92.3594 99.8906 92.3594C100.891 92.3594 101.859 92.2031 102.797 91.8906C103.766 91.5781 104.703 91.1719 105.609 90.6719C106.516 90.1719 107.391 89.6094 108.234 88.9844C109.109 88.3281 109.938 87.6719 110.719 87.0156C111.656 86.2344 112.672 85.2344 113.766 84.0156C114.891 82.7969 115.984 81.5156 117.047 80.1719C118.109 78.7969 119.094 77.4531 120 76.1406C120.906 74.8281 121.625 73.6875 122.156 72.7188C122.438 72.2188 122.766 71.5625 123.141 70.75C123.516 69.9062 123.875 69.0312 124.219 68.125C124.562 67.2188 124.875 66.3594 125.156 65.5469C125.438 64.7031 125.641 64.0312 125.766 63.5312C125.859 63.0938 125.938 62.7188 126 62.4062C126.094 62.0625 126.172 61.7188 126.234 61.375C126.328 61.0312 126.438 60.6719 126.562 60.2969C126.688 59.9219 126.844 59.5 127.031 59.0312C127.156 58.7188 127.391 58.3906 127.734 58.0469C128.078 57.6719 128.469 57.3438 128.906 57.0625C129.375 56.75 129.859 56.5 130.359 56.3125C130.891 56.0938 131.391 55.9844 131.859 55.9844C133.266 55.9844 134.344 56.3906 135.094 57.2031C135.844 57.9844 136.25 58.9531 136.312 60.1094C136.188 60.7344 135.969 61.7812 135.656 63.25C135.375 64.6875 135.078 66.3125 134.766 68.125C134.453 69.9062 134.188 71.7656 133.969 73.7031C133.75 75.6094 133.641 77.3594 133.641 78.9531C133.641 81.7031 134.016 83.875 134.766 85.4688C135.547 87.0312 136.641 87.8125 138.047 87.8125C139.109 87.8125 140.219 87.5312 141.375 86.9688C142.562 86.375 143.781 85.5938 145.031 84.625C146.281 83.6562 147.531 82.5469 148.781 81.2969C150.062 80.0156 151.312 78.6719 152.531 77.2656C153.781 75.8594 154.969 74.4375 156.094 73C157.25 71.5625 158.328 70.2031 159.328 68.9219C160.766 67.0469 162.078 65.5 163.266 64.2812C164.453 63.0312 165.609 62.4062 166.734 62.4062C166.922 62.4062 167.156 62.4375 167.438 62.5C167.75 62.5625 168.047 62.6719 168.328 62.8281C168.609 62.9844 168.844 63.1875 169.031 63.4375C169.25 63.6875 169.359 64.0156 169.359 64.4219ZM261.984 73.5625C261.984 73.8438 261.906 74.2188 261.75 74.6875C261.625 75.125 261.453 75.6094 261.234 76.1406C261.016 76.6406 260.75 77.1562 260.438 77.6875C260.156 78.2188 259.875 78.7188 259.594 79.1875C259.094 79.9688 258.422 80.875 257.578 81.9062C256.734 82.9375 255.797 84.0156 254.766 85.1406C253.734 86.2656 252.641 87.3906 251.484 88.5156C250.328 89.6406 249.188 90.6875 248.062 91.6562C247.156 92.4062 246.094 93.2344 244.875 94.1406C243.656 95.0469 242.359 95.8906 240.984 96.6719C239.609 97.4531 238.203 98.1094 236.766 98.6406C235.359 99.1406 234 99.3906 232.688 99.3906C231.469 99.3906 230.281 99.1562 229.125 98.6875C228 98.1875 226.938 97.2656 225.938 95.9219C224.969 94.5781 224.109 92.7031 223.359 90.2969C222.609 87.8906 222.016 84.7656 221.578 80.9219C221.547 80.5469 221.5 79.9688 221.438 79.1875C221.406 78.375 221.359 77.5781 221.297 76.7969C221.266 75.9844 221.219 75.2812 221.156 74.6875C221.094 74.0938 221.031 73.7969 220.969 73.7969C220.719 73.7969 220.297 74.1719 219.703 74.9219C219.141 75.6719 218.453 76.6719 217.641 77.9219C216.859 79.1406 216 80.5625 215.062 82.1875C214.125 83.7812 213.156 85.4375 212.156 87.1562C210.906 89.3438 209.719 91.3125 208.594 93.0625C207.5 94.7812 206.453 96.2344 205.453 97.4219C204.484 98.5781 203.531 99.4688 202.594 100.094C201.688 100.719 200.766 101.031 199.828 101.031C198.391 101.031 197.219 100.766 196.312 100.234C195.406 99.6719 194.688 98.8281 194.156 97.7031C193.625 96.5469 193.25 95.0781 193.031 93.2969C192.812 91.4844 192.672 89.3438 192.609 86.875C192.516 82.75 192.375 79.5312 192.188 77.2188C192.031 74.9062 191.797 73.75 191.484 73.75C191.109 73.75 190.484 74.2344 189.609 75.2031C188.734 76.1719 187.688 77.5 186.469 79.1875C185.281 80.875 183.969 82.8594 182.531 85.1406C181.125 87.4219 179.672 89.875 178.172 92.5C177.797 93.1875 177.344 93.9844 176.812 94.8906C176.281 95.7969 175.734 96.7188 175.172 97.6562C174.609 98.5938 174.047 99.5 173.484 100.375C172.953 101.25 172.469 102 172.031 102.625C171.469 103.438 170.781 104.062 169.969 104.5C169.156 104.906 168.297 105.109 167.391 105.109C166.109 105.109 165.016 104.844 164.109 104.312C163.203 103.75 162.469 103 161.906 102.062C161.344 101.125 160.922 100.016 160.641 98.7344C160.391 97.4531 160.266 96.0938 160.266 94.6562C160.266 93.375 160.297 92.2188 160.359 91.1875C160.422 90.1562 160.516 89.125 160.641 88.0938C160.766 87.0312 160.906 85.9219 161.062 84.7656C161.25 83.6094 161.453 82.2812 161.672 80.7812C161.859 79.4688 162 78.0938 162.094 76.6562C162.188 75.1875 162.281 73.7656 162.375 72.3906C162.469 70.9844 162.578 69.6875 162.703 68.5C162.828 67.3125 163 66.3281 163.219 65.5469C163.375 65.0156 163.578 64.4531 163.828 63.8594C164.078 63.2344 164.438 62.6719 164.906 62.1719C165.375 61.6406 165.969 61.2031 166.688 60.8594C167.406 60.4844 168.297 60.2969 169.359 60.2969C170.328 60.2969 171.109 60.4844 171.703 60.8594C172.297 61.2031 172.75 61.6875 173.062 62.3125C173.375 62.9062 173.578 63.6094 173.672 64.4219C173.797 65.2031 173.859 66.0312 173.859 66.9062C173.859 67.6562 173.75 68.6719 173.531 69.9531C173.344 71.2344 173.094 72.6562 172.781 74.2188C172.5 75.75 172.172 77.3594 171.797 79.0469C171.422 80.7031 171.062 82.2969 170.719 83.8281C170.406 85.3594 170.125 86.75 169.875 88C169.625 89.2188 169.453 90.1719 169.359 90.8594C169.422 90.7344 169.594 90.4219 169.875 89.9219C170.188 89.4219 170.547 88.8125 170.953 88.0938C171.391 87.375 171.844 86.6094 172.312 85.7969C172.781 84.9844 173.219 84.2188 173.625 83.5C174.062 82.7812 174.438 82.1562 174.75 81.625C175.062 81.0938 175.25 80.7656 175.312 80.6406C175.875 79.7031 176.531 78.6562 177.281 77.5C178.031 76.3125 178.812 75.125 179.625 73.9375C180.438 72.7188 181.234 71.5625 182.016 70.4688C182.828 69.375 183.562 68.4531 184.219 67.7031C185.625 66.1094 187.109 64.9062 188.672 64.0938C190.266 63.2812 191.953 62.875 193.734 62.875C195.641 62.875 197.234 63.5312 198.516 64.8438C199.797 66.1562 200.656 67.875 201.094 70C201.25 70.7812 201.375 71.7656 201.469 72.9531C201.562 74.1406 201.625 75.3906 201.656 76.7031C201.719 77.9844 201.766 79.2812 201.797 80.5938C201.828 81.9062 201.844 83.0781 201.844 84.1094C201.875 85.1406 201.906 85.9844 201.938 86.6406C201.969 87.2969 202.031 87.625 202.125 87.625C202.406 87.625 202.812 87.2344 203.344 86.4531C203.875 85.6719 204.469 84.6875 205.125 83.5C205.781 82.3125 206.469 81.0312 207.188 79.6562C207.906 78.2812 208.594 77.0156 209.25 75.8594C210.344 74.0156 211.5 72.25 212.719 70.5625C213.938 68.8438 215.141 67.3438 216.328 66.0625C217.547 64.75 218.703 63.7188 219.797 62.9688C220.891 62.1875 221.859 61.7969 222.703 61.7969C223.297 61.7969 223.906 61.8594 224.531 61.9844C225.156 62.1094 225.75 62.2969 226.312 62.5469C226.906 62.7656 227.438 63.0469 227.906 63.3906C228.375 63.7031 228.734 64.0625 228.984 64.4688C229.516 65.3125 229.906 66.2344 230.156 67.2344C230.406 68.2344 230.578 69.3438 230.672 70.5625C230.797 71.7812 230.875 73.125 230.906 74.5938C230.969 76.0625 231.094 77.6875 231.281 79.4688C231.625 82.7188 232.125 85.2656 232.781 87.1094C233.438 88.9531 234.375 89.875 235.594 89.875C236.125 89.875 236.812 89.6875 237.656 89.3125C238.531 88.9062 239.469 88.4062 240.469 87.8125C241.5 87.1875 242.547 86.5 243.609 85.75C244.703 85 245.719 84.25 246.656 83.5C247.688 82.6875 248.672 81.8594 249.609 81.0156C250.547 80.1406 251.469 79.25 252.375 78.3438C253.312 77.4375 254.25 76.5 255.188 75.5312C256.156 74.5312 257.172 73.4844 258.234 72.3906C258.891 71.7344 259.641 71.4062 260.484 71.4062C261.484 71.4062 261.984 72.125 261.984 73.5625ZM283.125 63.1094C283.125 63.0156 283.094 62.8438 283.031 62.5938C283 62.3125 282.953 62.0938 282.891 61.9375C281.859 62.0625 280.719 62.4688 279.469 63.1562C278.25 63.8125 276.922 64.8281 275.484 66.2031C274.078 67.5781 272.562 69.3594 270.938 71.5469C269.312 73.7031 267.609 76.3438 265.828 79.4688C265.359 80.3125 264.859 81.2344 264.328 82.2344C263.797 83.2031 263.297 84.25 262.828 85.375C262.391 86.5 262.031 87.7031 261.75 88.9844C261.469 90.2344 261.328 91.5625 261.328 92.9688C261.328 93.5 261.469 93.9062 261.75 94.1875C262.062 94.4375 262.375 94.5625 262.688 94.5625C263.406 94.5625 264.328 94.1562 265.453 93.3438C266.609 92.5 267.844 91.3906 269.156 90.0156C270.5 88.6406 271.859 87.0781 273.234 85.3281C274.641 83.5469 275.938 81.7344 277.125 79.8906C278.312 78.0156 279.344 76.1719 280.219 74.3594C281.125 72.5156 281.75 70.8594 282.094 69.3906C282.188 68.9219 282.297 68.375 282.422 67.75C282.547 67.125 282.656 66.5156 282.75 65.9219C282.875 65.2969 282.969 64.7344 283.031 64.2344C283.094 63.7344 283.125 63.3594 283.125 63.1094ZM320.953 69.0156C320.953 69.5781 320.859 70.1719 320.672 70.7969C320.484 71.4219 320.234 72.0469 319.922 72.6719C319.641 73.2969 319.312 73.9219 318.938 74.5469C318.562 75.1719 318.172 75.75 317.766 76.2812C315.953 78.7188 314 81.0156 311.906 83.1719C309.844 85.2969 307.766 87.2969 305.672 89.1719C304.547 90.1719 303.391 91.0781 302.203 91.8906C301.016 92.7031 299.828 93.4062 298.641 94C297.453 94.5938 296.297 95.0469 295.172 95.3594C294.047 95.6719 293 95.8281 292.031 95.8281C290.844 95.8281 289.703 95.4531 288.609 94.7031C287.516 93.9531 286.547 93.0156 285.703 91.8906C284.891 90.7344 284.234 89.5 283.734 88.1875C283.266 86.875 283.031 85.6562 283.031 84.5312C282.656 85.0938 282.109 85.8438 281.391 86.7812C280.672 87.7188 279.922 88.6719 279.141 89.6406C278.359 90.6094 277.625 91.5 276.938 92.3125C276.281 93.0938 275.812 93.6562 275.531 94C274.531 95.0625 273.375 96.1562 272.062 97.2812C270.75 98.4062 269.438 99.4219 268.125 100.328C266.844 101.234 265.641 101.984 264.516 102.578C263.391 103.141 262.531 103.422 261.938 103.422C260.562 103.422 259.234 103.203 257.953 102.766C256.672 102.328 255.531 101.703 254.531 100.891C253.562 100.047 252.781 99.0156 252.188 97.7969C251.594 96.5781 251.297 95.1875 251.297 93.625C251.297 92.0938 251.5 90.4219 251.906 88.6094C252.344 86.7656 252.922 84.8594 253.641 82.8906C254.391 80.8906 255.281 78.875 256.312 76.8438C257.344 74.8125 258.453 72.8438 259.641 70.9375C260.859 69 262.141 67.1719 263.484 65.4531C264.828 63.7344 266.203 62.2031 267.609 60.8594C270.109 58.4844 272.766 56.7344 275.578 55.6094C278.391 54.4844 281.297 53.9219 284.297 53.9219C285.078 53.9219 285.734 54.0312 286.266 54.25C286.797 54.4688 287.25 54.7656 287.625 55.1406C288 55.4844 288.312 55.8906 288.562 56.3594C288.844 56.8281 289.094 57.2969 289.312 57.7656C289.469 57.9844 289.719 58.2969 290.062 58.7031C290.438 59.0781 290.812 59.5 291.188 59.9688C291.562 60.4375 291.891 60.9062 292.172 61.375C292.453 61.8438 292.594 62.2656 292.594 62.6406C292.594 63.2969 292.5 64.0156 292.312 64.7969C292.125 65.5469 291.922 66.4219 291.703 67.4219C291.516 68.4219 291.328 69.5625 291.141 70.8438C290.953 72.0938 290.859 73.5469 290.859 75.2031C290.859 76.1406 290.922 77.2344 291.047 78.4844C291.203 79.7344 291.422 80.9062 291.703 82C291.984 83.0938 292.328 84.0312 292.734 84.8125C293.172 85.5625 293.656 85.9375 294.188 85.9375C294.844 85.9375 295.422 85.875 295.922 85.75C296.453 85.5938 296.953 85.3906 297.422 85.1406C297.891 84.8594 298.359 84.5312 298.828 84.1562C299.328 83.7812 299.891 83.375 300.516 82.9375C302.453 81.5312 304.391 79.9062 306.328 78.0625C308.297 76.2188 310.297 74.3281 312.328 72.3906C312.891 71.8594 313.469 71.2656 314.062 70.6094C314.688 69.9531 315.312 69.3438 315.938 68.7812C316.594 68.2188 317.234 67.75 317.859 67.375C318.484 67 319.078 66.8125 319.641 66.8125C320.516 66.8125 320.953 67.5469 320.953 69.0156ZM392.812 78.9062C393.312 78.9062 393.656 78.9688 393.844 79.0938C394.062 79.2188 394.172 79.5156 394.172 79.9844C394.172 81.1719 393.781 82.4062 393 83.6875C392.219 84.9688 391.141 86.2188 389.766 87.4375C388.422 88.625 386.844 89.7656 385.031 90.8594C383.219 91.9219 381.281 92.875 379.219 93.7188C377.188 94.5312 375.094 95.1719 372.938 95.6406C370.781 96.1094 368.656 96.3438 366.562 96.3438C364.188 96.3438 362.109 95.9844 360.328 95.2656C358.547 94.5469 357 93.6094 355.688 92.4531C354.406 91.2969 353.328 89.9844 352.453 88.5156C351.578 87.0156 350.859 85.4844 350.297 83.9219C349.734 82.3594 349.281 80.8438 348.938 79.375C348.625 77.875 348.359 76.5469 348.141 75.3906C348.078 75.0781 348.016 74.7656 347.953 74.4531C347.891 74.1094 347.672 73.9375 347.297 73.9375C347.109 73.9375 346.781 74.2656 346.312 74.9219C345.875 75.5469 345.359 76.3594 344.766 77.3594C344.172 78.3281 343.547 79.4219 342.891 80.6406C342.234 81.8281 341.625 83 341.062 84.1562C340 86.3125 338.891 88.5 337.734 90.7188C336.578 92.9062 335.344 94.8906 334.031 96.6719C332.75 98.4219 331.359 99.8594 329.859 100.984C328.359 102.109 326.734 102.672 324.984 102.672C323.359 102.672 322.062 102.156 321.094 101.125C320.125 100.062 319.391 98.7188 318.891 97.0938C318.422 95.4375 318.109 93.5781 317.953 91.5156C317.828 89.4531 317.766 87.4219 317.766 85.4219C317.766 83.0156 317.797 80.8594 317.859 78.9531C317.922 77.0469 317.953 75.1406 317.953 73.2344C317.953 72.0469 318.125 70.9219 318.469 69.8594C318.812 68.7969 319.266 67.8594 319.828 67.0469C320.391 66.2344 321.016 65.5938 321.703 65.125C322.422 64.6562 323.141 64.4219 323.859 64.4219C324.609 64.4219 325.328 64.4844 326.016 64.6094C326.734 64.7344 327.359 65.0156 327.891 65.4531C328.453 65.8594 328.891 66.4844 329.203 67.3281C329.516 68.1406 329.672 69.25 329.672 70.6562C329.672 72.0625 329.547 73.5156 329.297 75.0156C329.078 76.4844 328.828 78.0625 328.547 79.75C328.266 81.4375 328 83.2812 327.75 85.2812C327.5 87.25 327.359 89.4688 327.328 91.9375C327.734 91.5312 328.219 90.875 328.781 89.9688C329.344 89.0625 329.938 88.0312 330.562 86.875C331.219 85.6875 331.859 84.4531 332.484 83.1719C333.109 81.8594 333.703 80.6094 334.266 79.4219C335.734 76.2344 337.125 73.5 338.438 71.2188C339.75 68.9062 341.125 67.0156 342.562 65.5469C344.031 64.0781 345.609 63 347.297 62.3125C349.016 61.5938 351.016 61.2344 353.297 61.2344C353.891 61.2344 354.422 61.3906 354.891 61.7031C355.391 62.0156 355.812 62.4219 356.156 62.9219C356.531 63.3906 356.812 63.9375 357 64.5625C357.188 65.1875 357.281 65.8125 357.281 66.4375C357.281 70.0312 357.516 73.125 357.984 75.7188C358.484 78.2812 359.266 80.3906 360.328 82.0469C361.391 83.6719 362.75 84.875 364.406 85.6562C366.094 86.4062 368.125 86.7812 370.5 86.7812C371.219 86.7188 372.141 86.6094 373.266 86.4531C374.422 86.2656 375.672 86.0156 377.016 85.7031C378.359 85.3906 379.734 84.9844 381.141 84.4844C382.547 83.9844 383.875 83.3906 385.125 82.7031C385.281 82.6094 385.703 82.3594 386.391 81.9531C387.109 81.5469 387.891 81.125 388.734 80.6875C389.609 80.2188 390.438 79.8125 391.219 79.4688C392 79.0938 392.531 78.9062 392.812 78.9062ZM410.812 64.8438C410.812 64.3438 410.719 63.9375 410.531 63.625C410.344 63.2812 410.125 63.0156 409.875 62.8281C409.656 62.6406 409.422 62.5156 409.172 62.4531C408.953 62.3594 408.797 62.3125 408.703 62.3125C407.297 62.3125 406 62.8594 404.812 63.9531C403.625 65.0156 402.562 66.3906 401.625 68.0781C400.688 69.7656 399.859 71.625 399.141 73.6562C398.453 75.6875 397.875 77.6562 397.406 79.5625C399.281 78.125 401.031 76.7969 402.656 75.5781C404.281 74.3594 405.688 73.1719 406.875 72.0156C408.094 70.8594 409.047 69.7031 409.734 68.5469C410.453 67.3906 410.812 66.1562 410.812 64.8438ZM433.547 82.7969C433.547 83.9531 433.094 85.2656 432.188 86.7344C431.281 88.2031 430.062 89.7344 428.531 91.3281C426.844 93.0469 424.984 94.6562 422.953 96.1562C420.953 97.625 418.859 98.9062 416.672 100C414.516 101.062 412.312 101.906 410.062 102.531C407.812 103.125 405.625 103.422 403.5 103.422C400.875 103.422 398.531 103.016 396.469 102.203C394.438 101.359 392.703 100.141 391.266 98.5469C389.859 96.9219 388.781 94.9062 388.031 92.5C387.281 90.0938 386.906 87.3281 386.906 84.2031C386.906 82.3281 387.078 80.4219 387.422 78.4844C387.797 76.5469 388.328 74.625 389.016 72.7188C389.703 70.7812 390.562 68.9219 391.594 67.1406C392.625 65.3281 393.797 63.625 395.109 62.0312C395.953 61.0312 396.906 60.0312 397.969 59.0312C399.062 58 400.266 57.0781 401.578 56.2656C402.891 55.4531 404.328 54.7969 405.891 54.2969C407.484 53.7656 409.203 53.5 411.047 53.5C412.547 53.5 413.875 53.7812 415.031 54.3438C416.219 54.875 417.219 55.5625 418.031 56.4062C418.844 57.25 419.469 58.2031 419.906 59.2656C420.344 60.3281 420.562 61.375 420.562 62.4062C420.562 64.8438 420.031 67.125 418.969 69.25C417.938 71.3438 416.484 73.3594 414.609 75.2969C412.734 77.2031 410.469 79.0781 407.812 80.9219C405.188 82.7656 402.281 84.6562 399.094 86.5938C398.938 86.6562 398.688 86.7969 398.344 87.0156C398.031 87.2344 397.875 87.375 397.875 87.4375C397.906 88.0625 398.062 88.7344 398.344 89.4531C398.625 90.1719 399.062 90.8438 399.656 91.4688C400.25 92.0938 401 92.625 401.906 93.0625C402.844 93.4688 403.953 93.6719 405.234 93.6719C407.203 93.6719 409.188 93.4062 411.188 92.875C413.188 92.3125 415.156 91.5156 417.094 90.4844C419.031 89.4531 420.922 88.2031 422.766 86.7344C424.609 85.2656 426.359 83.6094 428.016 81.7656C428.641 81.0469 429.25 80.5312 429.844 80.2188C430.469 79.9062 431.047 79.75 431.578 79.75C432.109 79.75 432.562 79.9688 432.938 80.4062C433.344 80.8438 433.547 81.6406 433.547 82.7969Z" fill="#ABF600"/>
</svg>
