<svg width="500" height="120" viewBox="0 0 500 120" fill="none" xmlns="http://www.w3.org/2000/svg">
<path d="M89.7031 63.9844C87.9531 63.5469 84.2188 63.3281 78.5 63.3281C73.8438 73.0156 70.5781 81.6562 68.7031 89.25C67.6406 93.375 63.625 95.4375 56.6562 95.4375C50.9062 95.4375 47.25 94.0938 45.6875 91.4062C45.125 90.5 44.9062 89.625 45.0312 88.7812C45.1562 87.9062 45.5625 86.7812 46.25 85.4062C46.9375 84 47.875 82.2656 49.0625 80.2031L53.1875 73.1719L58.25 64.875L39.3594 66.4219C34.9844 73.9844 30.1406 81.1094 24.8281 87.7969C22.2344 90.9531 18.4219 92.5312 13.3906 92.5312C9.57812 92.5312 6.21875 91.7188 3.3125 90.0938C1.5625 89.125 0.71875 88.25 0.78125 87.4688C0.8125 86.375 1.4375 85.2812 2.65625 84.1875C7.65625 79.8125 12.6406 74.4688 17.6094 68.1562L10.4375 68.7188C6.84375 68.8125 4.59375 68.0312 3.6875 66.375C2.96875 65.0312 2.60938 63.5 2.60938 61.7812C2.60938 60.5938 2.89062 59.6094 3.45312 58.8281C4.01562 58.0469 4.64062 57.5625 5.32812 57.375C6.01562 57.1875 6.8125 57.0781 7.71875 57.0469L27.2188 54.6562C34.9375 42.2188 39.2969 35.25 40.2969 33.75C41.2969 32.2188 42.2812 30.9375 43.25 29.9062C45.6562 27.4688 48.1094 26.25 50.6094 26.25C52.3594 26.25 54 26.9531 55.5312 28.3594C56.2188 28.9844 56.5625 29.7031 56.5625 30.5156C56.5625 32.1094 55.6875 34.7031 53.9375 38.2969L47.0938 52.2188L68.0938 49.5938C73.9688 41.0938 78.0156 35.4219 80.2344 32.5781C84.7656 26.7969 87.9219 23.4688 89.7031 22.5938C93.0781 20.9062 95.5312 20.0625 97.0625 20.0625C98.5938 20.0625 99.5469 20.4844 99.9219 21.3281C100.297 22.1719 100.406 23.0469 100.25 23.9531C100.125 24.8594 99.6719 26.0156 98.8906 27.4219C98.1406 28.7969 97.1562 30.5 95.9375 32.5312C95.9375 32.5312 92.8281 37.7188 86.6094 48.0938C88.6719 48.2812 90.0938 48.8125 90.875 49.6875C92.25 51.1875 92.9375 53.5625 92.9375 56.8125C92.9375 59.1562 92.6406 61.3438 92.0469 63.375C91.7969 63.7812 91.0156 63.9844 89.7031 63.9844ZM154.766 66.4219C154.766 69.5781 156.156 71.1562 158.938 71.1562C161.719 71.1562 166.531 68.4844 173.375 63.1406L177.5 59.7656C180.219 57.5156 182.812 56.3906 185.281 56.3906C186.188 56.3906 186.781 56.6406 187.062 57.1406C187.344 57.6094 187.484 58.2188 187.484 58.9688C187.484 59.6875 187.344 60.4531 187.062 61.2656C186.812 62.0469 186.453 62.875 185.984 63.75C184.953 65.7188 183.953 67.25 182.984 68.3438C182.016 69.4375 180.875 70.5781 179.562 71.7656C178.281 72.9219 176.75 74.2344 174.969 75.7031C173.188 77.1406 171.219 78.625 169.062 80.1562C166.906 81.6562 164.734 83.0312 162.547 84.2812C157.609 87.1562 153.547 88.5938 150.359 88.5938C146.547 88.5938 143.562 87.25 141.406 84.5625C139.375 82.0625 138.234 78.7188 137.984 74.5312C132.359 80.3125 126.406 84.7656 120.125 87.8906C116.281 89.7969 113.031 90.75 110.375 90.75C107.719 90.75 105.391 90.4375 103.391 89.8125C101.391 89.1562 99.6406 88.1875 98.1406 86.9062C94.8906 84.1875 93.2656 80.4062 93.2656 75.5625C93.2656 68.625 95.75 61.9375 100.719 55.5C102.281 53.5 104.031 51.75 105.969 50.25C110.156 47.625 114.594 46.3125 119.281 46.3125C121.344 46.3125 122.812 46.9531 123.688 48.2344C124.031 48.7344 124.203 49.3906 124.203 50.2031C124.203 50.9844 123.969 51.9062 123.5 52.9688C123.062 54 122.516 55.0938 121.859 56.25C121.203 57.375 120.469 58.5469 119.656 59.7656C118.875 60.9844 118.156 62.1719 117.5 63.3281C115.938 66.0781 115.156 68.0625 115.156 69.2812C115.156 70.4688 115.5 71.3438 116.188 71.9062C116.875 72.4688 117.719 72.75 118.719 72.75C120.938 72.75 122.828 72.2188 124.391 71.1562C125.953 70.0625 127.5 68.8125 129.031 67.4062L133.438 63.0938L137.703 58.6875C140.734 55.5938 143.031 53.6719 144.594 52.9219C146.188 52.1406 147.344 51.8438 148.062 52.0312C148.781 52.2188 149.516 52.5625 150.266 53.0625C151.016 53.5312 151.75 54.1094 152.469 54.7969C154.156 56.4219 155.094 57.8906 155.281 59.2031C155.344 60.0469 155.266 61.3125 155.047 63C154.859 64.6562 154.766 65.7969 154.766 66.4219ZM266.281 64.3125C266.281 68.9062 267.719 71.2031 270.594 71.2031C272.594 71.2031 276.047 69.4531 280.953 65.9531C285.391 62.6719 288.031 60.6094 288.875 59.7656C290.812 58.1406 292.844 57.3281 294.969 57.3281C295.875 57.3281 296.641 57.6406 297.266 58.2656C297.922 58.8594 298.25 59.7656 298.25 60.9844C298.25 62.2031 297.953 63.3125 297.359 64.3125C296.766 65.3125 296 66.3438 295.062 67.4062C294.156 68.4688 293.016 69.6562 291.641 70.9688C290.297 72.2812 288.75 73.6719 287 75.1406C285.25 76.5781 283.328 78.0156 281.234 79.4531C279.172 80.8906 277.031 82.1875 274.812 83.3438C269.812 85.9062 265.297 87.1875 261.266 87.1875C256.641 87.1875 253.5 85.0938 251.844 80.9062C250.875 78.5 250.391 75.6094 250.391 72.2344L236.75 81.4688C227.406 88.0312 221.844 91.5156 220.062 91.9219C219.156 92.1406 218.234 92.25 217.297 92.25C216.391 92.25 215.531 92.1562 214.719 91.9688C213.906 91.8125 213.188 91.5312 212.562 91.125C211.125 90.2812 210.406 89.0312 210.406 87.375C210.406 86.7188 210.844 85.125 211.719 82.5938L215.75 71.5312C217 67.9688 217.625 65.8281 217.625 65.1094C217.625 64.8594 217.469 64.7344 217.156 64.7344C216.844 64.7344 216.266 65.0625 215.422 65.7188C214.578 66.375 213.562 67.2188 212.375 68.25L201.219 78L195.359 82.875C189.359 87.6562 184.469 90.0469 180.688 90.0469C178.906 90.0469 177.109 89.25 175.297 87.6562C173.328 85.9688 172.344 83.9375 172.344 81.5625C172.344 79.1875 172.578 76.5938 173.047 73.7812C173.484 70.9688 174.125 68.2656 174.969 65.6719C175.812 63.0469 176.859 60.5938 178.109 58.3125C179.359 56 180.781 54 182.375 52.3125C185.812 48.625 189.859 46.7812 194.516 46.7812C199.203 46.7812 201.547 48.1562 201.547 50.9062C201.547 52.0938 200.906 53.9062 199.625 56.3438C196.906 61.7188 195.547 64.625 195.547 65.0625C195.547 65.4688 195.672 65.7969 195.922 66.0469C196.203 66.2656 196.5 66.375 196.812 66.375C197.469 66.375 198.406 65.8438 199.625 64.7812C207.656 57.75 212.703 53.3906 214.766 51.7031C216.859 50.0156 218.875 48.5312 220.812 47.25C225.25 44.3438 228.781 42.8906 231.406 42.8906C233.562 42.8906 235.312 43.2344 236.656 43.9219C239 45.1406 240.172 46.5156 240.172 48.0469C240.172 49.5781 239.953 51.3125 239.516 53.25C239.109 55.1875 238.656 57.0625 238.156 58.875L236.75 63.6562C236.312 65.0312 236.094 66.0938 236.094 66.8438C236.094 67.5625 236.406 67.9219 237.031 67.9219C238.531 67.9219 241.516 65.7969 245.984 61.5469L250.531 57.2812C255.75 52.5938 259.703 50.25 262.391 50.25C263.672 50.25 264.812 50.75 265.812 51.75C267.562 53.5 268.438 55.0312 268.438 56.3438C268.438 57.0625 268.188 58.0312 267.688 59.25C266.75 61.5312 266.281 63.2188 266.281 64.3125ZM370.297 54.7969C371.297 54.7969 371.797 55.6406 371.797 57.3281C371.797 60.2344 369.766 64 365.703 68.625L363.031 71.3438C354.938 79.4375 347.312 84.8281 340.156 87.5156C335.719 89.1719 332.531 89.0938 330.594 87.2812C329 85.75 327.734 83.2812 326.797 79.875L325.672 75.7969L315.688 81.9375L309.922 85.2188C303.047 88.9688 297.891 90.8438 294.453 90.8438C290.047 90.8438 286.375 89.1406 283.438 85.7344C280.625 82.5156 279.219 78.7812 279.219 74.5312C279.219 70.3438 280.891 66.6094 284.234 63.3281C289.016 58.6406 296.562 54.3438 306.875 50.4375C316.625 46.7812 324.5 44.9531 330.5 44.9531C332.531 44.9531 333.547 45.9531 333.547 47.9531C333.547 49.3281 333.281 50.3594 332.75 51.0469C332.219 51.7344 331.125 52.4375 329.469 53.1562L323.562 55.6875C314.812 59.3438 308.406 63.1406 304.344 67.0781C303.188 68.1719 302.609 69.2344 302.609 70.2656C302.609 71.2969 303.438 71.8125 305.094 71.8125C306.719 71.8125 310.5 70.0625 316.438 66.5625L320.328 64.2656C326.359 60.6406 331.406 58.8281 335.469 58.8281C338.906 58.8281 341.188 60.3438 342.312 63.375C342.594 64.1875 342.859 65.0156 343.109 65.8594C343.359 66.6719 343.609 67.4062 343.859 68.0625C344.422 69.5938 344.922 70.3594 345.359 70.3594C345.828 70.3594 346.484 70.1406 347.328 69.7031C348.172 69.2344 349.094 68.6562 350.094 67.9688C351.125 67.25 352.188 66.4688 353.281 65.625L358.953 61.0781C363.984 56.8906 367.766 54.7969 370.297 54.7969ZM412.766 64.8281C412.766 67.6719 413.594 69.0938 415.25 69.0938C419.312 69.0938 424.594 66.3438 431.094 60.8438L432.359 59.7656C434.891 58.0781 436.938 57.2344 438.5 57.2344C440.094 57.2344 441.094 57.4688 441.5 57.9375C441.938 58.4062 442.156 59.1562 442.156 60.1875C442.156 62.5 440.984 64.9531 438.641 67.5469C435.141 71.7969 430.344 75.8281 424.25 79.6406C417.188 84.0781 410.859 86.2969 405.266 86.2969C401.359 86.2969 398.906 84.125 397.906 79.7812C397.625 78.6562 397.422 77.5781 397.297 76.5469C396.984 74.0469 396.656 72.6562 396.312 72.375C395.969 72.0938 395.281 72.125 394.25 72.4688C393.25 72.7812 392.047 73.3281 390.641 74.1094C389.266 74.8594 387.734 75.7812 386.047 76.875C377.109 82.8125 371.969 86.2031 370.625 87.0469C367.406 89.0469 365.234 90.0469 364.109 90.0469C362.984 90.0469 361.875 89.8125 360.781 89.3438C359.719 88.875 358.781 88.2812 357.969 87.5625C356.281 85.9688 355.438 84.3438 355.438 82.6875C355.438 73.2188 357.5 64.9375 361.625 57.8438C364.375 53.0625 367.75 49.75 371.75 47.9062C373.781 46.9375 375.969 46.4531 378.312 46.4531C382.594 46.4531 384.734 47.8594 384.734 50.6719C384.734 52.3906 383.719 55.2031 381.688 59.1094L380.281 61.875C379.281 63.7812 378.797 64.8594 378.828 65.1094C379.016 66.0469 379.438 66.5156 380.094 66.5156C380.812 66.5156 381.875 65.9844 383.281 64.9219L391.906 58.5L396.219 55.5C401.188 52.25 404.844 50.625 407.188 50.625C408.438 50.625 409.578 51.125 410.609 52.125C412.516 53.9375 413.469 55.5156 413.469 56.8594C413.469 57.2969 413.422 57.8281 413.328 58.4531C413.266 59.0781 413.188 59.75 413.094 60.4688L412.906 62.6719C412.812 63.4219 412.766 64.1406 412.766 64.8281ZM497.234 55.5469C498.734 55.5469 499.484 56.3906 499.484 58.0781C499.484 59.2031 499.094 60.625 498.312 62.3438C497.562 64.0312 496.469 65.625 495.031 67.125C493.594 68.5938 491.938 70.125 490.062 71.7188C488.219 73.3125 486.047 74.9844 483.547 76.7344C481.078 78.4844 478.344 80.2188 475.344 81.9375C472.344 83.6562 469.156 85.2031 465.781 86.5781C458.312 89.6406 451.078 91.1719 444.078 91.1719C438.734 91.1719 434.062 89.7812 430.062 87C425.875 84.0938 423.781 80.5625 423.781 76.4062C423.781 69.875 427.297 63.6719 434.328 57.7969C440.391 52.7344 447.531 48.8125 455.75 46.0312C460.75 44.3438 464.984 43.5 468.453 43.5C471.266 43.5 473.641 44.1875 475.578 45.5625C477.641 47.0625 478.672 49.0781 478.672 51.6094C478.672 55.5781 475.531 59.9688 469.25 64.7812C468.25 65.5625 467.344 66.2188 466.531 66.75L464.844 67.875C461.719 70.0625 456.969 72.5156 450.594 75.2344C452.562 76.2656 454.391 76.7812 456.078 76.7812C457.797 76.7812 459.328 76.5781 460.672 76.1719C462.047 75.7656 463.594 75.1875 465.312 74.4375C467.031 73.6875 468.859 72.7969 470.797 71.7656C472.766 70.7031 474.75 69.5469 476.75 68.2969C481.219 65.5156 485.094 62.6719 488.375 59.7656C490.094 58.1719 492.281 56.9062 494.938 55.9688C495.812 55.6875 496.578 55.5469 497.234 55.5469ZM445.531 68.7188L448.109 67.4062C448.953 66.9688 449.703 66.5625 450.359 66.1875C456.672 62.5625 460.266 60.3281 461.141 59.4844C462.016 58.6406 462.453 58.0625 462.453 57.75C462.453 57.4062 462.359 57.0156 462.172 56.5781C461.984 56.1406 461.734 55.75 461.422 55.4062C460.672 54.5312 459.875 54.0938 459.031 54.0938C458.188 54.0938 457.25 54.25 456.219 54.5625C455.219 54.875 454.203 55.3125 453.172 55.875C452.141 56.4062 451.141 57.0625 450.172 57.8438C449.234 58.5938 448.406 59.4062 447.688 60.2812C446.031 62.25 445.203 63.9531 445.203 65.3906C445.203 66.8281 445.312 67.9375 445.531 68.7188Z" fill="#ABF600"/>
</svg>
